<?xml version="1.0" encoding="UTF-8" standalone="no"?>
<svg
   xmlns:dc="http://purl.org/dc/elements/1.1/"
   xmlns:cc="http://creativecommons.org/ns#"
   xmlns:rdf="http://www.w3.org/1999/02/22-rdf-syntax-ns#"
   xmlns:svg="http://www.w3.org/2000/svg"
   xmlns="http://www.w3.org/2000/svg"
   viewBox="0 0 666.66669 666.66669"
   height="666.66669"
   width="666.66669"
   xml:space="preserve"
   id="svg2"
   version="1.1"><metadata
     id="metadata8"><rdf:RDF><cc:Work
         rdf:about=""><dc:format>image/svg+xml</dc:format><dc:type
           rdf:resource="http://purl.org/dc/dcmitype/StillImage" /></cc:Work></rdf:RDF></metadata><defs
     id="defs6"><clipPath
       id="clipPath22"
       clipPathUnits="userSpaceOnUse"><path
         id="path20"
         d="M 0,500 H 500 V 0 H 0 Z" /></clipPath></defs><g
     transform="matrix(1.3333333,0,0,-1.3333333,0,666.66667)"
     id="g10"><path
       id="path12"
       style="fill:none;fill-opacity:1;fill-rule:nonzero;stroke:none"
       d="m 0.5,0.5 h 499 v 499 H 0.5 Z" /><path
       id="path14"
       style="fill:none;fill-opacity:01;fill-rule:nonzero;stroke:none"
       d="M 0,0 H 500 V 500 H 0 Z M 1,499 H 499 V 1 H 1 Z" /><g
       id="g16"><g
         clip-path="url(#clipPath22)"
         id="g18"><g
           transform="translate(351.1915,306.6308)"
           id="g24"><path
             id="path26"
             style="fill:#000000;fill-opacity:1;fill-rule:nonzero;stroke:none"
             d="m 0,0 h -36.111 l -2.76,13.85 c -0.874,4.39 -4.728,7.551 -9.204,7.551 h -66.715 c -4.477,0 -8.33,-3.161 -9.204,-7.551 L -126.754,0 h -23.589 v 3.511 c 0,0.707 -0.574,1.281 -1.281,1.281 h -41.041 c -0.708,0 -1.281,-0.574 -1.281,-1.281 V 0 h -8.437 c -5.365,0 -9.714,-4.349 -9.714,-9.714 v -115.234 c 0,-5.365 4.349,-9.715 9.714,-9.715 H 0 c 5.365,0 9.714,4.35 9.714,9.715 V -9.714 C 9.714,-4.349 5.365,0 0,0" /></g><g
           transform="translate(269.7588,281.9185)"
           id="g28"><path
             id="path30"
             style="fill:#ffffff;fill-opacity:1;fill-rule:nonzero;stroke:none"
             d="m 0,0 c -26.193,0 -47.502,-21.31 -47.502,-47.502 0,-26.193 21.309,-47.503 47.502,-47.503 26.193,0 47.503,21.31 47.503,47.503 C 47.503,-21.31 26.193,0 0,0 m 0,-101.005 c -29.501,0 -53.502,24.001 -53.502,53.503 C -53.502,-18.001 -29.501,6 0,6 29.502,6 53.503,-18.001 53.503,-47.502 53.503,-77.004 29.502,-101.005 0,-101.005" /></g><g
           transform="translate(239.4445,306.6308)"
           id="g32"><path
             id="path34"
             style="fill:#ffffff;fill-opacity:1;fill-rule:nonzero;stroke:none"
             d="m 0,0 1.716,8.613 c 0.349,1.75 1.897,3.021 3.682,3.021 h 49.833 c 1.785,0 3.333,-1.271 3.681,-3.02 L 60.629,0 Z" /></g><g
           transform="translate(174.5874,284.9186)"
           id="g36"><path
             id="path38"
             style="fill:#ffffff;fill-opacity:1;fill-rule:nonzero;stroke:none"
             d="m 0,0 h -18.058 c -2.251,0 -4.076,1.825 -4.076,4.076 0,2.251 1.825,4.075 4.076,4.075 H 0 C 2.251,8.151 4.076,6.327 4.076,4.076 4.076,1.825 2.251,0 0,0" /></g><g
           transform="translate(193.7048,288.9944)"
           id="g40"><path
             id="path42"
             style="fill:#ffffff;fill-opacity:1;fill-rule:nonzero;stroke:none"
             d="m 0,0 c 0,-2.251 -1.825,-4.076 -4.076,-4.076 -2.251,0 -4.075,1.825 -4.075,4.076 0,2.251 1.824,4.076 4.075,4.076 C -1.825,4.076 0,2.251 0,0" /></g><g
           transform="translate(205.6394,288.9944)"
           id="g44"><path
             id="path46"
             style="fill:#ffffff;fill-opacity:1;fill-rule:nonzero;stroke:none"
             d="m 0,0 c 0,-2.251 -1.825,-4.076 -4.076,-4.076 -2.251,0 -4.075,1.825 -4.075,4.076 0,2.251 1.824,4.076 4.075,4.076 C -1.825,4.076 0,2.251 0,0" /></g><g
           transform="translate(344.7107,288.9944)"
           id="g48"><path
             id="path50"
             style="fill:#ffffff;fill-opacity:1;fill-rule:nonzero;stroke:none"
             d="m 0,0 c 0,-2.251 -1.825,-4.076 -4.076,-4.076 -2.251,0 -4.075,1.825 -4.075,4.076 0,2.251 1.824,4.076 4.075,4.076 C -1.825,4.076 0,2.251 0,0" /></g><g
           transform="translate(269.7588,273.0186)"
           id="g52"><path
             id="path54"
             style="fill:#ffffff;fill-opacity:1;fill-rule:nonzero;stroke:none"
             d="m 0,0 c -10.311,0 -20.005,-4.015 -27.296,-11.306 -15.051,-15.051 -15.051,-39.542 0,-54.593 7.291,-7.291 16.985,-11.306 27.296,-11.306 10.312,0 20.005,4.015 27.296,11.306 7.291,7.291 11.307,16.985 11.307,27.296 0,10.311 -4.016,20.006 -11.307,27.296 C 20.005,-4.015 10.312,0 0,0 m 0,-83.205 c -11.914,0 -23.114,4.639 -31.539,13.064 -17.39,17.39 -17.39,45.687 0,63.077 C -23.114,1.361 -11.914,6 0,6 11.914,6 23.115,1.361 31.539,-7.064 c 8.424,-8.424 13.064,-19.625 13.064,-31.539 0,-11.914 -4.64,-23.114 -13.064,-31.539 C 23.115,-78.566 11.914,-83.205 0,-83.205" /></g><g
           transform="translate(297.7173,230.3867)"
           id="g56"><path
             id="path58"
             style="fill:#ffffff;fill-opacity:1;fill-rule:nonzero;stroke:none"
             d="m 0,0 c -0.217,0 -0.436,0.023 -0.657,0.073 -1.617,0.361 -2.635,1.964 -2.274,3.581 0.753,3.371 0.335,6.928 -1.175,10.015 -0.735,1.502 -1.715,2.871 -2.91,4.066 -1.172,1.172 -1.172,3.071 0,4.243 1.171,1.171 3.071,1.171 4.242,0 1.665,-1.665 3.03,-3.573 4.057,-5.671 C 3.391,12 3.973,7.042 2.925,2.347 2.613,0.95 1.374,0 0,0" /></g><g
           transform="translate(250,99.2852)"
           id="g60"><path
             id="path62"
             style="fill:#ea2127;fill-opacity:1;fill-rule:nonzero;stroke:none"
             d="m 0,0 c -45.545,0 -86.434,20.309 -114.093,52.345 l 242.911,176.536 c 13.889,-22.805 21.897,-49.568 21.897,-78.166 C 150.715,67.61 83.104,0 0,0 m 0,301.43 c 45.545,0 86.435,-20.31 114.093,-52.345 L -128.818,72.548 c -13.889,22.805 -21.897,49.568 -21.897,78.167 0,83.104 67.61,150.715 150.715,150.715 m 0,25 c -96.89,0 -175.715,-78.826 -175.715,-175.715 C -175.715,53.825 -96.89,-25 0,-25 96.89,-25 175.715,53.825 175.715,150.715 175.715,247.604 96.89,326.43 0,326.43" /></g></g></g></g></svg>