<?xml version="1.0" encoding="UTF-8" standalone="no"?>
<svg
   xmlns:dc="http://purl.org/dc/elements/1.1/"
   xmlns:cc="http://creativecommons.org/ns#"
   xmlns:rdf="http://www.w3.org/1999/02/22-rdf-syntax-ns#"
   xmlns:svg="http://www.w3.org/2000/svg"
   xmlns="http://www.w3.org/2000/svg"
   viewBox="0 0 666.66669 666.66669"
   height="666.66669"
   width="666.66669"
   xml:space="preserve"
   id="svg2"
   version="1.1"><metadata
     id="metadata8"><rdf:RDF><cc:Work
         rdf:about=""><dc:format>image/svg+xml</dc:format><dc:type
           rdf:resource="http://purl.org/dc/dcmitype/StillImage" /></cc:Work></rdf:RDF></metadata><defs
     id="defs6"><clipPath
       id="clipPath18"
       clipPathUnits="userSpaceOnUse"><path
         id="path16"
         d="M 0,500 H 500 V 0 H 0 Z" /></clipPath><clipPath
       id="clipPath34"
       clipPathUnits="userSpaceOnUse"><path
         id="path32"
         d="M 11.0371,482.328 H 446.306 V 111.171 H 11.0371 Z" /></clipPath><clipPath
       id="clipPath158"
       clipPathUnits="userSpaceOnUse"><path
         id="path156"
         d="M 0,500 H 500 V 0 H 0 Z" /></clipPath><clipPath
       id="clipPath166"
       clipPathUnits="userSpaceOnUse"><path
         id="path164"
         d="M 82.6619,160.45 H 173.261 V 82.9743 H 82.6619 Z" /></clipPath><clipPath
       id="clipPath182"
       clipPathUnits="userSpaceOnUse"><path
         id="path180"
         d="M 62.1089,148.052 H 152.708 V 70.5763 H 62.1089 Z" /></clipPath><clipPath
       id="clipPath198"
       clipPathUnits="userSpaceOnUse"><path
         id="path196"
         d="M 317.894,91.4306 H 446.856 V 25.0383 H 317.894 Z" /></clipPath><clipPath
       id="clipPath214"
       clipPathUnits="userSpaceOnUse"><path
         id="path212"
         d="M 0,500 H 500 V 0 H 0 Z" /></clipPath><clipPath
       id="clipPath230"
       clipPathUnits="userSpaceOnUse"><path
         id="path228"
         d="M 90.4036,158.98 H 100.696 V 145.689 H 90.4036 Z" /></clipPath><clipPath
       id="clipPath246"
       clipPathUnits="userSpaceOnUse"><path
         id="path244"
         d="m 90.4036,158.816 h 6.6542 v -10.862 h -6.6542 z" /></clipPath><clipPath
       id="clipPath270"
       clipPathUnits="userSpaceOnUse"><path
         id="path268"
         d="m 90.404,152.792 h 68.151 V 88.9337 H 90.404 Z" /></clipPath><clipPath
       id="clipPath302"
       clipPathUnits="userSpaceOnUse"><path
         id="path300"
         d="M 69.3867,146.84 H 79.6794 V 133.549 H 69.3867 Z" /></clipPath><clipPath
       id="clipPath318"
       clipPathUnits="userSpaceOnUse"><path
         id="path316"
         d="m 69.3867,146.676 h 6.6537 v -10.862 h -6.6537 z" /></clipPath><clipPath
       id="clipPath342"
       clipPathUnits="userSpaceOnUse"><path
         id="path340"
         d="M 69.3875,140.652 H 137.538 V 77.4818 H 69.3875 Z" /></clipPath><clipPath
       id="clipPath366"
       clipPathUnits="userSpaceOnUse"><path
         id="path364"
         d="M 0,500 H 500 V 0 H 0 Z" /></clipPath><clipPath
       id="clipPath378"
       clipPathUnits="userSpaceOnUse"><path
         id="path376"
         d="M 46.9821,450.534 H 241.448 V 199.427 H 46.9821 Z" /></clipPath><clipPath
       id="clipPath394"
       clipPathUnits="userSpaceOnUse"><path
         id="path392"
         d="M 65.7643,417.462 H 232.978 V 204.16 H 65.7643 Z" /></clipPath><clipPath
       id="clipPath438"
       clipPathUnits="userSpaceOnUse"><path
         id="path436"
         d="M 46.9781,450.535 H 303.463 V 199.434 H 46.9781 Z" /></clipPath><clipPath
       id="clipPath454"
       clipPathUnits="userSpaceOnUse"><path
         id="path452"
         d="M 46.9781,450.535 H 303.463 V 199.434 H 46.9781 Z" /></clipPath><clipPath
       id="clipPath470"
       clipPathUnits="userSpaceOnUse"><path
         id="path468"
         d="M 0,500 H 500 V 0 H 0 Z" /></clipPath><clipPath
       id="clipPath634"
       clipPathUnits="userSpaceOnUse"><path
         id="path632"
         d="M 307.107,344.736 H 450.032 V 33.1799 H 307.107 Z" /></clipPath><clipPath
       id="clipPath650"
       clipPathUnits="userSpaceOnUse"><path
         id="path648"
         d="M 0,500 H 500 V 0 H 0 Z" /></clipPath><clipPath
       id="clipPath662"
       clipPathUnits="userSpaceOnUse"><path
         id="path660"
         d="M 0,500 H 500 V 0 H 0 Z" /></clipPath></defs><g
     transform="matrix(1.3333333,0,0,-1.3333333,0,666.66667)"
     id="g10"><g
       id="g12"><g
         clip-path="url(#clipPath18)"
         id="g14"><g
           transform="translate(489.2604,255.8259)"
           id="g20"><path
             id="path22"
             style="fill:#2b454e;fill-opacity:1;fill-rule:nonzero;stroke:none"
             d="m 0,0 c -5.18,53.7 -32.15,107.275 -55.416,136.862 -98.611,125.402 -296.53,125.157 -390.799,-32.346 -26.59,-44.426 -43.275,-143.194 -23.528,-216.247 25.271,-93.493 124.856,-129.906 235.596,-129.046 103.469,0.804 184.826,45.79 215.289,107.937 C 0.203,-93.952 5.18,-53.7 0,0" /></g><g
           transform="translate(43.0454,360.3422)"
           id="g24"><path
             id="path26"
             style="fill:#1a2e35;fill-opacity:1;fill-rule:nonzero;stroke:none"
             d="m 0,0 c -26.59,-44.426 -43.275,-143.194 -23.528,-216.247 4.434,-16.404 11.164,-31.045 19.833,-44.042 0,0 0,0 10e-4,-0.001 l 109.949,63.471 93.7,54.09 v 0 l 220.124,127.07 c 0,0.001 -0.001,0.002 -0.001,0.004 C 410.913,3.376 400.534,19.966 390.799,32.346 292.188,157.748 94.269,157.503 0,0" /></g><g
           id="g28"><g
             id="g30" /><g
             id="g150"><g
               style="opacity:0.19999701"
               id="g148"
               clip-path="url(#clipPath34)"><g
                 id="g38"
                 transform="translate(43.2249,284.8992)"><path
                   id="path36"
                   style="fill:#000000;fill-opacity:1;fill-rule:nonzero;stroke:none"
                   d="m 0,0 c 2.13,1.229 3.856,4.22 3.856,6.679 v 7.803 C 3.856,16.941 2.13,17.938 0,16.708 L -25.47,2.003 c -1.174,-6.036 -2.215,-12.217 -3.11,-18.503 z" /></g><g
                 id="g42"
                 transform="translate(34.1373,342.5744)"><path
                   id="path40"
                   style="fill:#000000;fill-opacity:1;fill-rule:nonzero;stroke:none"
                   d="m 0,0 9.087,5.246 c 2.13,1.23 3.856,4.22 3.856,6.68 v 7.802 c 0,1.308 -0.496,2.185 -1.273,2.551 C 10.741,20.788 9.818,19.288 8.908,17.768 5.787,12.553 2.805,6.582 0,0" /></g><g
                 id="g46"
                 transform="translate(81.971,411.182)"><path
                   id="path44"
                   style="fill:#000000;fill-opacity:1;fill-rule:nonzero;stroke:none"
                   d="m 0,0 7.696,4.443 c 2.126,1.228 3.849,4.21 3.855,6.667 C 7.622,7.567 3.771,3.863 0,0" /></g><g
                 id="g50"
                 transform="translate(47.0808,209.5078)"><path
                   id="path48"
                   style="fill:#000000;fill-opacity:1;fill-rule:nonzero;stroke:none"
                   d="m 0,0 v 7.803 c 0,2.459 -1.726,3.455 -3.856,2.226 L -35.893,-8.467 c 0.236,-5.391 0.605,-10.753 1.115,-16.065 L -3.856,-6.679 C -1.726,-5.449 0,-2.459 0,0" /></g><g
                 id="g54"
                 transform="translate(139.9654,325.9678)"><path
                   id="path52"
                   style="fill:#000000;fill-opacity:1;fill-rule:nonzero;stroke:none"
                   d="m 0,0 v 7.803 c 0,2.459 -1.726,3.456 -3.856,2.227 l -35.696,-20.61 c -2.13,-1.229 -3.856,-4.22 -3.857,-6.679 v -7.803 c 0,-2.459 1.727,-3.456 3.856,-2.226 L -3.856,-6.679 C -1.726,-5.449 0,-2.459 0,0" /></g><g
                 id="g58"
                 transform="translate(20.4328,140.955)"><path
                   id="path56"
                   style="fill:#000000;fill-opacity:1;fill-rule:nonzero;stroke:none"
                   d="m 0,0 c 0.753,-2.577 1.555,-5.116 2.422,-7.605 v 4.877 C 2.422,-0.855 1.418,0.161 0,0" /></g><g
                 id="g62"
                 transform="translate(20.6787,232.3189)"><path
                   id="path60"
                   style="fill:#000000;fill-opacity:1;fill-rule:nonzero;stroke:none"
                   d="m 0,0 c 2.129,1.23 3.856,4.22 3.856,6.679 v 7.803 c 0,2.459 -1.727,3.456 -3.856,2.226 l -8.713,-5.03 C -9.154,5.96 -9.465,0.203 -9.642,-5.566 Z" /></g><g
                 id="g66"
                 transform="translate(146.8559,366.4843)"><path
                   id="path64"
                   style="fill:#000000;fill-opacity:1;fill-rule:nonzero;stroke:none"
                   d="m 0,0 35.696,20.609 c 2.13,1.23 3.856,4.22 3.856,6.679 v 7.803 c 0,2.459 -1.726,3.456 -3.856,2.226 L 0,16.708 c -2.13,-1.23 -3.856,-4.22 -3.856,-6.679 V 2.226 C -3.856,-0.233 -2.131,-1.23 0,0" /></g><g
                 id="g70"
                 transform="translate(170.7523,236.7161)"><path
                   id="path68"
                   style="fill:#000000;fill-opacity:1;fill-rule:nonzero;stroke:none"
                   d="m 0,0 35.696,20.609 c 2.13,1.23 3.856,4.22 3.856,6.68 v 7.802 c 0,2.46 -1.726,3.456 -3.856,2.227 L 0,16.708 c -2.13,-1.229 -3.856,-4.22 -3.856,-6.679 V 2.227 C -3.856,-0.233 -2.13,-1.229 0,0" /></g><g
                 id="g74"
                 transform="translate(77.8668,388.3538)"><path
                   id="path72"
                   style="fill:#000000;fill-opacity:1;fill-rule:nonzero;stroke:none"
                   d="m 0,0 35.696,20.609 c 2.131,1.23 3.857,4.22 3.857,6.679 v 7.803 c 0,2.459 -1.726,3.456 -3.857,2.226 L 0.001,16.708 c -2.13,-1.23 -3.857,-4.22 -3.857,-6.679 V 2.226 C -3.856,-0.233 -2.13,-1.23 0,0" /></g><g
                 id="g78"
                 transform="translate(142.9996,327.6754)"><path
                   id="path76"
                   style="fill:#000000;fill-opacity:1;fill-rule:nonzero;stroke:none"
                   d="m 0,0 c 0,-2.459 1.726,-3.456 3.856,-2.227 l 35.696,20.61 c 2.13,1.229 3.856,4.22 3.856,6.679 v 7.803 c 0,2.459 -1.726,3.455 -3.856,2.226 L 3.856,14.482 C 1.727,13.252 0,10.262 0,7.802 Z" /></g><g
                 id="g82"
                 transform="translate(89.6669,227.1573)"><path
                   id="path80"
                   style="fill:#000000;fill-opacity:1;fill-rule:nonzero;stroke:none"
                   d="m 0,0 -35.696,-20.609 c -2.13,-1.23 -3.856,-4.22 -3.856,-6.679 l -10e-4,-7.803 c 0,-2.459 1.726,-3.456 3.856,-2.226 L 0,-16.708 c 2.13,1.23 3.856,4.22 3.856,6.679 v 7.803 C 3.856,0.233 2.13,1.23 0,0" /></g><g
                 id="g86"
                 transform="translate(232.6035,482.3282)"><path
                   id="path84"
                   style="fill:#000000;fill-opacity:1;fill-rule:nonzero;stroke:none"
                   d="m 0,0 c -10.664,-0.787 -21.306,-2.32 -31.85,-4.608 l -7.455,-4.305 c -2.13,-1.229 -3.856,-4.219 -3.856,-6.678 l -10e-4,-7.803 c 0,-2.46 1.727,-3.456 3.856,-2.227 l 35.697,20.61 C -1.946,-4.051 -0.541,-2.017 0,0" /></g><g
                 id="g90"
                 transform="translate(117.4196,251.5012)"><path
                   id="path88"
                   style="fill:#000000;fill-opacity:1;fill-rule:nonzero;stroke:none"
                   d="m 0,0 v 7.803 c 0,2.459 -1.726,3.456 -3.856,2.226 L -39.552,-10.58 c -2.13,-1.23 -3.856,-4.22 -3.856,-6.679 v -7.803 c -10e-4,-2.459 1.725,-3.456 3.855,-2.226 L -3.856,-6.679 C -1.726,-5.449 0,-2.459 0,0" /></g><g
                 id="g94"
                 transform="translate(163.8616,196.2001)"><path
                   id="path92"
                   style="fill:#000000;fill-opacity:1;fill-rule:nonzero;stroke:none"
                   d="m 0,0 v 7.803 c 0,2.459 -1.726,3.456 -3.856,2.226 L -39.552,-10.58 c -2.13,-1.23 -3.856,-4.22 -3.856,-6.679 l -10e-4,-7.803 c 0,-2.459 1.727,-3.456 3.856,-2.226 L -3.856,-6.679 C -1.726,-5.45 0,-2.459 0,0" /></g><g
                 id="g98"
                 transform="translate(286.1829,282.6515)"><path
                   id="path96"
                   style="fill:#000000;fill-opacity:1;fill-rule:nonzero;stroke:none"
                   d="m 0,0 35.696,20.609 c 2.13,1.23 3.857,4.22 3.857,6.679 v 7.803 c 0,2.459 -1.727,3.456 -3.857,2.226 L 0,16.708 c -2.13,-1.23 -3.856,-4.22 -3.856,-6.679 V 2.226 C -3.856,-0.233 -2.13,-1.23 0,0" /></g><g
                 id="g102"
                 transform="translate(310.0797,275.9888)"><path
                   id="path100"
                   style="fill:#000000;fill-opacity:1;fill-rule:nonzero;stroke:none"
                   d="m 0,0 35.697,20.61 c 2.129,1.229 3.856,4.219 3.856,6.678 v 7.803 c 0,2.46 -1.727,3.456 -3.856,2.227 L 0,16.708 c -2.13,-1.23 -3.856,-4.22 -3.856,-6.679 V 2.227 C -3.856,-0.233 -2.13,-1.229 0,0" /></g><g
                 id="g106"
                 transform="translate(282.327,392.7985)"><path
                   id="path104"
                   style="fill:#000000;fill-opacity:1;fill-rule:nonzero;stroke:none"
                   d="m 0,0 v -7.803 c 0,-2.459 1.726,-3.456 3.856,-2.226 L 39.552,10.58 c 2.13,1.23 3.857,4.22 3.857,6.679 v 7.803 c 0,2.459 -1.727,3.456 -3.857,2.227 L 3.856,6.679 C 1.726,5.45 0,2.459 0,0" /></g><g
                 id="g110"
                 transform="translate(306.5408,467.0464)"><path
                   id="path108"
                   style="fill:#000000;fill-opacity:1;fill-rule:nonzero;stroke:none"
                   d="m 0,0 c -2.129,-1.229 -3.856,-4.22 -3.856,-6.679 v -7.803 c 0,-2.459 1.726,-3.455 3.856,-2.226 L 28.345,-0.343 C 22.401,2.004 16.374,4.094 10.283,5.937 Z" /></g><g
                 id="g114"
                 transform="translate(299.3333,427.6904)"><path
                   id="path112"
                   style="fill:#000000;fill-opacity:1;fill-rule:nonzero;stroke:none"
                   d="m 0,0 -35.696,-20.609 c -2.13,-1.23 -3.856,-4.22 -3.856,-6.679 v -7.803 c 0,-2.459 1.726,-3.456 3.856,-2.226 L 0,-16.708 c 2.13,1.23 3.856,4.22 3.856,6.679 v 7.803 C 3.856,0.233 2.13,1.23 0,0" /></g><g
                 id="g118"
                 transform="translate(349.6326,393.1507)"><path
                   id="path116"
                   style="fill:#000000;fill-opacity:1;fill-rule:nonzero;stroke:none"
                   d="m 0,0 c 0,2.459 -1.727,3.456 -3.856,2.226 l -35.697,-20.609 c -2.13,-1.23 -3.856,-4.22 -3.856,-6.679 v -7.803 c 0,-2.459 1.726,-3.456 3.856,-2.227 l 35.697,20.61 c 2.129,1.23 3.856,4.22 3.856,6.679 z" /></g><g
                 id="g122"
                 transform="translate(438.6612,366.8447)"><path
                   id="path120"
                   style="fill:#000000;fill-opacity:1;fill-rule:nonzero;stroke:none"
                   d="m 0,0 -35.696,-20.609 c -2.13,-1.23 -3.856,-4.22 -3.857,-6.679 v -7.803 c 0,-2.459 1.726,-3.456 3.856,-2.226 L 0,-16.708 c 2.129,1.23 3.856,4.22 3.856,6.679 v 7.803 C 3.856,0.233 2.129,1.23 0,0" /></g><g
                 id="g126"
                 transform="translate(438.1472,386.9884)"><path
                   id="path124"
                   style="fill:#000000;fill-opacity:1;fill-rule:nonzero;stroke:none"
                   d="m 0,0 -12.637,-7.321 c -2.128,-1.23 -3.856,-4.22 -3.856,-6.679 v -7.803 c 0,-2.459 1.727,-3.456 3.856,-2.226 L 8.159,-11.993 C 5.437,-7.723 2.705,-3.715 0,0" /></g><g
                 id="g130"
                 transform="translate(256.7467,331.8094)"><path
                   id="path128"
                   style="fill:#000000;fill-opacity:1;fill-rule:nonzero;stroke:none"
                   d="m 0,0 v 7.803 c 0,2.459 -1.726,3.455 -3.856,2.226 L -39.552,-10.58 c -2.13,-1.23 -3.856,-4.22 -3.856,-6.679 v -7.803 c 0,-2.459 1.726,-3.456 3.856,-2.227 l 35.696,20.61 C -1.726,-5.45 0,-2.459 0,0" /></g><g
                 id="g134"
                 transform="translate(392.2178,422.1463)"><path
                   id="path132"
                   style="fill:#000000;fill-opacity:1;fill-rule:nonzero;stroke:none"
                   d="m 0,0 -35.696,-20.609 c -2.129,-1.23 -3.856,-4.22 -3.856,-6.68 v -7.802 c 0,-2.46 1.726,-3.457 3.856,-2.227 L 0,-16.708 c 2.131,1.229 3.857,4.22 3.857,6.679 v 7.802 C 3.857,0.233 2.131,1.229 0,0" /></g><g
                 id="g138"
                 transform="translate(228.994,266.43)"><path
                   id="path136"
                   style="fill:#000000;fill-opacity:1;fill-rule:nonzero;stroke:none"
                   d="m 0,0 -35.696,-20.609 c -2.13,-1.23 -3.856,-4.22 -3.856,-6.679 l -10e-4,-7.803 c 0,-2.459 1.727,-3.456 3.856,-2.226 L 0,-16.708 c 2.13,1.23 3.856,4.22 3.856,6.679 v 7.803 C 3.856,0.233 2.13,1.23 0,0" /></g><g
                 id="g142"
                 transform="translate(42.8959,117.0824)"><path
                   id="path140"
                   style="fill:#000000;fill-opacity:1;fill-rule:nonzero;stroke:none"
                   d="m 0,0 c 2.13,1.23 3.856,4.22 3.856,6.679 v 7.803 C 3.856,16.941 2.13,17.938 0,16.708 L -16.529,7.166 c 1.907,-4.512 4.002,-8.874 6.29,-13.077 z" /></g><g
                 id="g146"
                 transform="translate(375.212,346.2191)"><path
                   id="path144"
                   style="fill:#000000;fill-opacity:1;fill-rule:nonzero;stroke:none"
                   d="m 0,0 v -7.803 c 0,-2.459 1.726,-3.456 3.856,-2.226 L 39.553,10.58 c 2.129,1.23 3.856,4.22 3.856,6.679 v 7.803 c 0,2.459 -1.727,3.456 -3.856,2.226 L 3.857,6.679 C 1.726,5.449 0,2.459 0,0" /></g></g></g></g></g></g><g
       id="g152"><g
         clip-path="url(#clipPath158)"
         id="g154"><g
           id="g160"><g
             id="g162" /><g
             id="g174"><g
               style="opacity:0.14999402"
               id="g172"
               clip-path="url(#clipPath166)"><g
                 id="g170"
                 transform="translate(169.4912,95.6711)"><path
                   id="path168"
                   style="fill:#000000;fill-opacity:1;fill-rule:nonzero;stroke:none"
                   d="m 0,0 c -0.391,0.227 -0.807,0.43 -1.234,0.621 l 0.15,0.087 -69.991,38.297 V 64.779 L -86.829,55.69 V 29.917 l 64.937,-35.532 c 0.144,-1.778 1.376,-3.55 3.74,-4.905 5.002,-2.902 13.132,-2.902 18.152,0 2.518,1.444 3.77,3.36 3.77,5.268 C 3.77,-3.359 2.518,-1.444 0,0" /></g></g></g></g><g
           id="g176"><g
             id="g178" /><g
             id="g190"><g
               style="opacity:0.14999402"
               id="g188"
               clip-path="url(#clipPath182)"><g
                 id="g186"
                 transform="translate(148.9382,83.2729)"><path
                   id="path184"
                   style="fill:#000000;fill-opacity:1;fill-rule:nonzero;stroke:none"
                   d="m 0,0 c -0.391,0.227 -0.807,0.43 -1.234,0.622 l 0.15,0.086 -69.991,38.297 V 64.779 L -86.829,55.69 V 29.917 l 64.938,-35.532 c 0.144,-1.778 1.375,-3.55 3.739,-4.905 5.002,-2.902 13.132,-2.902 18.152,0 2.518,1.444 3.77,3.36 3.77,5.268 C 3.77,-3.359 2.518,-1.444 0,0" /></g></g></g></g><g
           id="g192"><g
             id="g194" /><g
             id="g206"><g
               style="opacity:0.14999402"
               id="g204"
               clip-path="url(#clipPath198)"><g
                 id="g202"
                 transform="translate(387.1766,37.72)"><path
                   id="path200"
                   style="fill:#000000;fill-opacity:1;fill-rule:nonzero;stroke:none"
                   d="m 0,0 c -5.859,3.712 -13.371,6.897 -22.321,9.462 -10.06,2.883 -21.956,4.997 -30.514,8.485 -11.123,4.532 -16.098,11.242 -16.435,18.681 -0.19,4.214 1.603,9.182 10.588,13.635 2.3,1.14 5.144,2.244 8.292,2.866 4.623,0.913 8.793,0.598 12.188,0.095 18.113,-2.685 26.665,-9.66 33.638,-16.634 6.973,-6.973 14.708,-10.469 28.493,-15.976 5.9,-2.356 12.185,-4.588 17.789,-7.028 0.046,-0.02 0.091,-0.04 0.136,-0.06 2.832,-1.241 5.909,-2.327 8.208,-3.768 3.666,-2.3 6.955,-4.745 8.577,-7.607 1.621,-2.863 1.513,-6.178 -1.502,-9.714 -0.776,-0.91 -1.817,-1.878 -3.72,-2.7 -1.609,-0.696 -3.676,-1.213 -5.693,-1.581 -4.108,-0.75 -8.155,-0.947 -11.625,-0.785 -3.469,0.163 -6.416,0.666 -9.154,1.251 C 15.006,-8.826 6.996,-4.433 0,0" /></g></g></g></g></g></g><g
       id="g208"><g
         clip-path="url(#clipPath214)"
         id="g210"><g
           transform="translate(95.5605,164.2128)"
           id="g216"><path
             id="path218"
             style="fill:#375a64;fill-opacity:1;fill-rule:nonzero;stroke:none"
             d="m 0,0 5.136,-2.965 -10.293,-17.828 -5.146,2.971 v 10e-4 c -1.317,0.76 -2.132,2.391 -2.132,4.711 0,4.642 3.259,10.286 7.279,12.607 C -3.141,0.661 -1.318,0.768 0,0" /></g><g
           transform="translate(88.2719,148.1322)"
           id="g220"><path
             id="path222"
             style="fill:#1a2e35;fill-opacity:1;fill-rule:nonzero;stroke:none"
             d="m 0,0 c 0,4.641 3.259,10.285 7.279,12.607 4.019,2.321 7.278,0.44 7.277,-4.202 0,-4.642 -3.259,-10.286 -7.278,-12.607 C 3.258,-6.523 0,-4.641 0,0" /></g><g
           id="g224"><g
             id="g226" /><g
             id="g238"><g
               style="opacity:0.30000299"
               id="g236"
               clip-path="url(#clipPath230)"><g
                 id="g234"
                 transform="translate(90.4036,149.3633)"><path
                   id="path232"
                   style="fill:#000000;fill-opacity:1;fill-rule:nonzero;stroke:none"
                   d="m 0,0 c 0,3.282 2.304,7.273 5.146,8.914 2.843,1.641 5.147,0.311 5.147,-2.971 0,-3.283 -2.305,-7.274 -5.147,-8.914 C 2.304,-4.612 0,-3.282 0,0" /></g></g></g></g><g
           id="g240"><g
             id="g242" /><g
             id="g254"><g
               style="opacity:0.30000299"
               id="g252"
               clip-path="url(#clipPath246)"><g
                 id="g250"
                 transform="translate(97.0578,157.4072)"><path
                   id="path248"
                   style="fill:#000000;fill-opacity:1;fill-rule:nonzero;stroke:none"
                   d="m 0,0 c 0,-3.283 -2.305,-7.273 -5.147,-8.914 -0.458,-0.265 -0.893,-0.425 -1.316,-0.539 -0.112,0.423 -0.191,0.88 -0.191,1.409 0,3.282 2.304,7.273 5.146,8.914 0.459,0.264 0.894,0.425 1.317,0.539 C -0.079,0.986 0,0.528 0,0" /></g></g></g></g><g
           transform="translate(91.912,146.0221)"
           id="g256"><path
             id="path258"
             style="fill:#375a64;fill-opacity:1;fill-rule:nonzero;stroke:none"
             d="m 0,0 60.33,-34.871 c 0.566,-0.327 0.915,-0.931 0.915,-1.584 v -5.047 l 0.001,-15.586 h 14.561 v 17.904 h -0.004 v 4.649 c 0,4.668 -2.491,8.982 -6.533,11.316 L 7.283,12.609 C 6.351,13.151 5.062,13.078 3.638,12.255 0.796,10.614 -1.508,6.623 -1.508,3.341 c 0,-1.644 0.579,-2.796 1.513,-3.333 z" /></g><g
           transform="translate(167.7159,110.799)"
           id="g260"><path
             id="path262"
             style="fill:#2b454e;fill-opacity:1;fill-rule:nonzero;stroke:none"
             d="m 0,0 c 0,1.036 -0.129,2.052 -0.364,3.035 0.052,-0.398 0.21,-3.176 -5.145,-4.956 -5.778,-1.921 -9.049,0 -9.049,0 v -5.046 l 10e-4,-14.898 H 0.004 V -4.65 L 0,-4.65 Z" /></g><g
           id="g264"><g
             id="g266" /><g
             id="g278"><g
               style="opacity:0.30000299"
               id="g276"
               clip-path="url(#clipPath270)"><g
                 id="g274"
                 transform="translate(91.912,146.0221)"><path
                   id="path272"
                   style="fill:#000000;fill-opacity:1;fill-rule:nonzero;stroke:none"
                   d="m 0,0 60.33,-34.871 c 0.566,-0.327 0.915,-0.931 0.915,-1.584 v -5.047 l 0.001,-15.586 h 5.397 v 15.386 H 66.64 v 1.999 c 0,4.668 -2.49,8.982 -6.532,11.316 L -0.717,6.77 C -1.174,5.619 -1.508,4.448 -1.508,3.341 c 0,-1.644 0.579,-2.796 1.513,-3.333 z" /></g></g></g></g><g
           transform="translate(170.745,97.2073)"
           id="g280"><path
             id="path282"
             style="fill:#1a2e35;fill-opacity:1;fill-rule:nonzero;stroke:none"
             d="m 0,0 v -5.945 c 0,-1.534 -1.006,-3.069 -3.03,-4.229 -4.036,-2.334 -10.575,-2.334 -14.598,0 -2.024,1.16 -3.03,2.695 -3.03,4.216 V 0 h 3.069 c 0,-0.735 0.309,-1.457 0.967,-2.102 0.078,-0.077 0.155,-0.155 0.245,-0.232 0.258,-0.219 0.541,-0.438 0.89,-0.645 2.849,-1.651 7.466,-1.651 10.316,0 0.348,0.207 0.632,0.426 0.89,0.645 0.09,0.077 0.167,0.155 0.245,0.232 0.658,0.645 1.006,1.367 1.006,2.102 z" /></g><g
           transform="translate(170.745,97.2073)"
           id="g284"><path
             id="path286"
             style="fill:#375a64;fill-opacity:1;fill-rule:nonzero;stroke:none"
             d="m 0,0 c 0,-1.522 -1.006,-3.056 -3.03,-4.217 -4.036,-2.321 -10.575,-2.321 -14.598,0 -2.024,1.161 -3.03,2.695 -3.03,4.217 0,1.522 1.006,3.056 3.03,4.217 0.013,0.013 0.026,0.013 0.039,0.026 V 0 c 0,-0.735 0.309,-1.457 0.967,-2.102 0.078,-0.077 0.155,-0.155 0.245,-0.232 0.258,-0.219 0.541,-0.438 0.89,-0.645 2.849,-1.651 7.466,-1.651 10.316,0 0.348,0.207 0.632,0.426 0.89,0.645 0.09,0.077 0.167,0.155 0.245,0.232 0.658,0.645 1.006,1.367 1.006,2.102 V 4.217 C -1.006,3.056 0,1.522 0,0" /></g><g
           transform="translate(74.5436,152.0724)"
           id="g288"><path
             id="path290"
             style="fill:#375a64;fill-opacity:1;fill-rule:nonzero;stroke:none"
             d="m 0,0 5.135,-2.965 -10.293,-17.828 -5.146,2.971 v 10e-4 c -1.317,0.76 -2.131,2.391 -2.131,4.712 0,4.641 3.259,10.285 7.279,12.606 C -3.141,0.66 -1.318,0.768 0,0" /></g><g
           transform="translate(67.2549,135.9919)"
           id="g292"><path
             id="path294"
             style="fill:#1a2e35;fill-opacity:1;fill-rule:nonzero;stroke:none"
             d="m 0,0 c 0,4.642 3.259,10.286 7.279,12.607 4.02,2.321 7.278,0.44 7.277,-4.202 0,-4.642 -3.259,-10.286 -7.278,-12.607 C 3.258,-6.523 0,-4.641 0,0" /></g><g
           id="g296"><g
             id="g298" /><g
             id="g310"><g
               style="opacity:0.30000299"
               id="g308"
               clip-path="url(#clipPath302)"><g
                 id="g306"
                 transform="translate(69.3867,137.223)"><path
                   id="path304"
                   style="fill:#000000;fill-opacity:1;fill-rule:nonzero;stroke:none"
                   d="M 0,0 C 0,3.282 2.304,7.273 5.146,8.914 7.989,10.555 10.293,9.225 10.293,5.943 10.292,2.661 7.988,-1.33 5.146,-2.971 2.304,-4.612 0,-3.282 0,0" /></g></g></g></g><g
           id="g312"><g
             id="g314" /><g
             id="g326"><g
               style="opacity:0.30000299"
               id="g324"
               clip-path="url(#clipPath318)"><g
                 id="g322"
                 transform="translate(76.0404,145.2669)"><path
                   id="path320"
                   style="fill:#000000;fill-opacity:1;fill-rule:nonzero;stroke:none"
                   d="m 0,0 c 0,-3.283 -2.304,-7.274 -5.146,-8.914 -0.458,-0.265 -0.894,-0.425 -1.317,-0.539 -0.112,0.422 -0.191,0.88 -0.191,1.409 0,3.282 2.305,7.273 5.147,8.914 0.458,0.264 0.894,0.425 1.316,0.539 C -0.079,0.986 0,0.529 0,0" /></g></g></g></g><g
           transform="translate(70.8955,133.8817)"
           id="g328"><path
             id="path330"
             style="fill:#375a64;fill-opacity:1;fill-rule:nonzero;stroke:none"
             d="m 0,0 60.33,-34.871 c 0.566,-0.326 0.914,-0.931 0.914,-1.584 v -5.047 L 61.246,-56.4 h 14.56 v 17.216 h -0.004 v 4.649 c 0,4.668 -2.49,8.982 -6.532,11.316 L 7.283,12.609 C 6.35,13.152 5.062,13.078 3.637,12.255 0.796,10.614 -1.508,6.623 -1.508,3.341 c 0,-1.644 0.578,-2.796 1.513,-3.333 z" /></g><g
           transform="translate(146.6977,99.3471)"
           id="g332"><path
             id="path334"
             style="fill:#2b454e;fill-opacity:1;fill-rule:nonzero;stroke:none"
             d="m 0,0 c 0,1.036 -0.129,2.052 -0.364,3.035 0.052,-0.398 0.21,-3.176 -5.145,-4.956 -5.778,-1.921 -9.049,0 -9.049,0 v -5.046 l 10e-4,-14.898 H 0.004 V -4.65 L 0,-4.65 Z" /></g><g
           id="g336"><g
             id="g338" /><g
             id="g350"><g
               style="opacity:0.30000299"
               id="g348"
               clip-path="url(#clipPath342)"><g
                 id="g346"
                 transform="translate(70.8955,133.8817)"><path
                   id="path344"
                   style="fill:#000000;fill-opacity:1;fill-rule:nonzero;stroke:none"
                   d="m 0,0 60.33,-34.871 c 0.566,-0.326 0.914,-0.931 0.914,-1.584 v -5.047 L 61.246,-56.4 h 5.397 v 14.698 h -0.004 v 2 c 0,4.667 -2.491,8.981 -6.533,11.315 L -0.719,6.77 C -1.175,5.619 -1.508,4.449 -1.508,3.341 c 0,-1.644 0.578,-2.796 1.513,-3.333 z" /></g></g></g></g><g
           transform="translate(149.7277,85.067)"
           id="g352"><path
             id="path354"
             style="fill:#1a2e35;fill-opacity:1;fill-rule:nonzero;stroke:none"
             d="m 0,0 v -5.945 c 0,-1.534 -1.006,-3.069 -3.03,-4.229 -4.037,-2.334 -10.574,-2.334 -14.598,0 -2.024,1.16 -3.03,2.695 -3.03,4.216 V 0 h 3.069 c 0,-0.735 0.31,-1.457 0.967,-2.102 0.077,-0.077 0.155,-0.155 0.245,-0.232 0.258,-0.219 0.542,-0.438 0.89,-0.645 2.85,-1.651 7.466,-1.651 10.316,0 0.348,0.207 0.633,0.426 0.89,0.645 0.09,0.077 0.168,0.155 0.245,0.232 0.658,0.645 1.006,1.367 1.006,2.102 z" /></g><g
           transform="translate(149.7277,85.067)"
           id="g356"><path
             id="path358"
             style="fill:#375a64;fill-opacity:1;fill-rule:nonzero;stroke:none"
             d="m 0,0 c 0,-1.522 -1.006,-3.056 -3.03,-4.217 -4.037,-2.321 -10.574,-2.321 -14.598,0 -2.024,1.161 -3.03,2.695 -3.03,4.217 0,1.522 1.006,3.056 3.03,4.217 0.013,0.013 0.026,0.013 0.039,0.026 V 0 c 0,-0.735 0.31,-1.457 0.967,-2.102 0.077,-0.077 0.155,-0.155 0.245,-0.232 0.258,-0.219 0.542,-0.438 0.89,-0.645 2.85,-1.651 7.466,-1.651 10.316,0 0.348,0.207 0.633,0.426 0.89,0.645 0.09,0.077 0.168,0.155 0.245,0.232 0.658,0.645 1.006,1.367 1.006,2.102 V 4.217 C -1.006,3.056 0,1.522 0,0" /></g></g></g><g
       id="g360"><g
         clip-path="url(#clipPath366)"
         id="g362"><g
           transform="translate(241.4477,381.1207)"
           id="g368"><path
             id="path370"
             style="fill:#d268cc;fill-opacity:1;fill-rule:nonzero;stroke:none"
             d="m 0,0 c 0,31.003 -10.883,52.787 -28.479,62.945 -17.595,10.158 -41.904,8.69 -68.754,-6.813 -53.7,-31.005 -97.233,-106.406 -97.233,-168.412 0,-31.003 10.884,-52.787 28.479,-62.945 17.596,-10.158 41.904,-8.69 68.754,6.813 C -43.532,-137.407 0,-62.006 0,0" /></g><g
           id="g372"><g
             id="g374" /><g
             id="g386"><g
               style="opacity:0.94999701"
               id="g384"
               clip-path="url(#clipPath378)"><g
                 id="g382"
                 transform="translate(241.4477,381.1207)"><path
                   id="path380"
                   style="fill:#ffffff;fill-opacity:1;fill-rule:nonzero;stroke:none"
                   d="m 0,0 c 0,31.003 -10.883,52.787 -28.479,62.945 -17.595,10.158 -41.904,8.69 -68.754,-6.813 -53.7,-31.005 -97.233,-106.406 -97.233,-168.412 0,-31.003 10.884,-52.787 28.479,-62.945 17.596,-10.158 41.904,-8.69 68.754,6.813 C -43.532,-137.407 0,-62.006 0,0" /></g></g></g></g><g
           id="g388"><g
             id="g390" /><g
             id="g430"><g
               style="opacity:0.19999701"
               id="g428"
               clip-path="url(#clipPath394)"><g
                 id="g398"
                 transform="translate(89.667,227.1572)"><path
                   id="path396"
                   style="fill:#d268cc;fill-opacity:1;fill-rule:nonzero;stroke:none"
                   d="m 0,0 -23.903,-13.8 c 2.945,-2.935 6.184,-5.434 9.697,-7.462 1.079,-0.623 2.183,-1.201 3.312,-1.735 L 0,-16.708 c 2.13,1.23 3.856,4.22 3.856,6.679 v 7.803 C 3.856,0.233 2.13,1.23 0,0" /></g><g
                 id="g402"
                 transform="translate(142.9996,368.7104)"><path
                   id="path400"
                   style="fill:#d268cc;fill-opacity:1;fill-rule:nonzero;stroke:none"
                   d="m 0,0 c 0,-2.459 1.726,-3.456 3.856,-2.226 l 35.696,20.609 c 2.13,1.23 3.856,4.22 3.856,6.679 v 7.803 c 0,2.459 -1.726,3.456 -3.856,2.226 L 3.856,14.482 C 1.727,13.252 0,10.262 0,7.803 Z" /></g><g
                 id="g406"
                 transform="translate(182.552,362.7666)"><path
                   id="path404"
                   style="fill:#d268cc;fill-opacity:1;fill-rule:nonzero;stroke:none"
                   d="m 0,0 -35.696,-20.609 c -2.13,-1.23 -3.856,-4.22 -3.856,-6.68 v -7.802 c 0,-2.46 1.725,-3.456 3.856,-2.227 L 0,-16.708 c 2.13,1.229 3.856,4.22 3.856,6.679 v 7.802 C 3.856,0.233 2.13,1.229 0,0" /></g><g
                 id="g410"
                 transform="translate(117.4197,415.6419)"><path
                   id="path408"
                   style="fill:#d268cc;fill-opacity:1;fill-rule:nonzero;stroke:none"
                   d="m 0,0 v 1.82 c -5.001,-4.539 -9.834,-9.437 -14.47,-14.627 l 10.614,6.128 C -1.726,-5.449 0,-2.459 0,0" /></g><g
                 id="g414"
                 transform="translate(205.8011,273.6602)"><path
                   id="path412"
                   style="fill:#d268cc;fill-opacity:1;fill-rule:nonzero;stroke:none"
                   d="m 0,0 -35.049,-20.236 c -2.13,-1.229 -3.856,-4.22 -3.856,-6.679 v -7.803 c 0,-2.459 1.726,-3.455 3.856,-2.226 l 11.018,6.361 C -15.3,-21.316 -7.217,-10.996 0,0" /></g><g
                 id="g418"
                 transform="translate(217.1948,321.229)"><path
                   id="path416"
                   style="fill:#d268cc;fill-opacity:1;fill-rule:nonzero;stroke:none"
                   d="m 0,0 c -2.13,-1.23 -3.856,-4.22 -3.856,-6.679 v -7.803 c 0,-2.459 1.726,-3.456 3.856,-2.226 l 7.747,4.473 c 3.071,7.042 5.764,14.183 8.036,21.347 z" /></g><g
                 id="g422"
                 transform="translate(117.4197,251.5012)"><path
                   id="path420"
                   style="fill:#d268cc;fill-opacity:1;fill-rule:nonzero;stroke:none"
                   d="m 0,0 v 7.803 c 0,2.459 -1.726,3.456 -3.856,2.226 L -39.552,-10.58 c -2.13,-1.23 -3.857,-4.22 -3.857,-6.679 v -7.803 c 0,-2.459 1.726,-3.456 3.856,-2.226 L -3.856,-6.679 C -1.726,-5.449 0,-2.459 0,0" /></g><g
                 id="g426"
                 transform="translate(136.1095,335.9974)"><path
                   id="path424"
                   style="fill:#d268cc;fill-opacity:1;fill-rule:nonzero;stroke:none"
                   d="m 0,0 -35.696,-20.609 c -2.13,-1.23 -3.856,-4.22 -3.857,-6.68 v -7.802 c 0,-2.459 1.727,-3.457 3.856,-2.227 L 0,-16.708 c 2.13,1.229 3.856,4.22 3.856,6.678 v 7.804 C 3.856,0.233 2.13,1.229 0,0" /></g></g></g></g><g
           id="g432"><g
             id="g434" /><g
             id="g446"><g
               style="opacity:0.19999701"
               id="g444"
               clip-path="url(#clipPath438)"><g
                 id="g442"
                 transform="translate(303.4634,233.4054)"><path
                   id="path440"
                   style="fill:#d268cc;fill-opacity:1;fill-rule:nonzero;stroke:none"
                   d="m 0,0 -192.025,-33.079 v 0.01 c -13.66,-2.25 -25.92,-0.25 -35.98,5.56 -17.59,10.159 -28.48,31.94 -28.48,62.94 0,62.009 43.54,137.41 97.24,168.419 26.85,15.5 51.16,16.97 68.75,6.81 10.06,-5.81 17.92,-15.419 22.81,-28.379 l 0.01,0.009 z" /></g></g></g></g><g
           id="g448"><g
             id="g450" /><g
             id="g462"><g
               style="opacity:0.19999701"
               id="g460"
               clip-path="url(#clipPath454)"><g
                 id="g458"
                 transform="translate(303.4634,233.4054)"><path
                   id="path456"
                   style="fill:#ffffff;fill-opacity:1;fill-rule:nonzero;stroke:none"
                   d="m 0,0 -192.025,-33.079 v 0.01 c -13.66,-2.25 -25.92,-0.25 -35.98,5.56 -17.59,10.159 -28.48,31.94 -28.48,62.94 0,62.009 43.54,137.41 97.24,168.419 26.85,15.5 51.16,16.97 68.75,6.81 10.06,-5.81 17.92,-15.419 22.81,-28.379 l 0.01,0.009 z" /></g></g></g></g></g></g><g
       id="g464"><g
         clip-path="url(#clipPath470)"
         id="g466"><g
           transform="translate(432.8751,238.7996)"
           id="g472"><path
             id="path474"
             style="fill:#ffaaa8;fill-opacity:1;fill-rule:nonzero;stroke:none"
             d="M 0,0 C -0.001,0.001 -9.745,23.108 -9.745,23.108 -14.404,35.021 -12.65,51.123 -12.65,51.123 -7.04,51.225 -1.782,49.321 1.851,42.735 5.484,36.15 12.672,12.69 14.318,7.642 c 1.688,-5.693 2.087,-7.93 2.394,-13.566 0.32,-5.873 -1.177,-16.7 -1.564,-22.55 -0.178,-2.706 -0.156,-5.301 -0.145,-8.037 0.01,-2.852 -0.72,-5.595 -1.101,-8.424 -0.175,-1.306 -0.828,-2.618 -1.654,-3.641 -0.543,-0.674 -1.401,-0.892 -1.918,-1.527 -0.534,-0.656 -0.5,-1.558 -1.27,-2.139 -0.857,-0.647 -1.997,-0.551 -2.733,-1.19 -0.77,-0.668 -1.361,-1.541 -2.243,-2.137 -0.794,-0.536 -1.406,-0.803 -1.929,-1.648 -0.43,-0.692 -0.708,-2.111 -1.698,-2.194 -1.111,-0.093 -1.482,0.93 -1.707,1.831 -0.396,1.59 0.101,3.784 0.827,5.232 0.84,1.676 1.279,3.527 2.313,5.103 0.936,1.426 1.28,3.341 1.474,5.043 0.136,1.189 -0.236,2.612 -1.569,1.685 -1.571,-1.093 -3.083,-3.062 -5.203,-3.088 -1.466,-0.019 -1.752,1.087 -1.095,2.176 1.099,1.825 1.998,3.624 2.826,5.604 0.824,1.97 1.43,4.009 2.307,5.95 0.456,1.009 1.043,1.997 1.634,2.945 1.654,2.652 1.002,5.732 0.707,8.651 C 2.559,-14.204 0.892,-5.167 0,0" /></g><g
           transform="translate(419.272,290.8322)"
           id="g476"><path
             id="path478"
             style="fill:#375a64;fill-opacity:1;fill-rule:nonzero;stroke:none"
             d="m 0,0 c 7.903,-0.588 12.325,-2.217 16.548,-9.959 4.223,-7.742 9.853,-26.569 11.085,-30.44 1.231,-3.871 2.468,-8.255 2.949,-14.448 0.369,-4.749 0.059,-8.464 0.059,-8.464 0,0 -1.073,-2.073 -7.407,-2.073 -6.334,0 -8.199,1.114 -8.199,1.114 L 13.029,-52.188 0,-23.507 Z" /></g><g
           transform="translate(326.9809,78.8569)"
           id="g480"><path
             id="path482"
             style="fill:#1a2e35;fill-opacity:1;fill-rule:nonzero;stroke:none"
             d="m 0,0 c -0.641,0.28 -1.175,-1.333 -1.014,-2.241 0.46,-2.609 2.964,-6.064 7.422,-8.676 4.459,-2.611 14.262,-4.381 17.144,-5.192 2.884,-0.811 7.328,-3.844 10.016,-5.218 4.897,-2.502 8.897,-2.213 11.124,-1.1 0.874,0.437 1.248,1.377 1.495,2.212 0.585,1.979 0.542,2.432 0.318,2.487 z" /></g><g
           transform="translate(374.7741,67.0354)"
           id="g484"><path
             id="path486"
             style="fill:#2b454e;fill-opacity:1;fill-rule:nonzero;stroke:none"
             d="m 0,0 c -0.204,-2.055 -0.925,-5.359 -1.834,-7.229 -1.069,-1.269 -2.938,-1.584 -4.347,-1.572 -3.721,0.033 -6.967,1.308 -10.428,3.302 -2.075,1.195 -4.337,2.489 -7.06,3.207 -2.991,0.789 -9.686,2.224 -12.648,3.138 -2.515,0.777 -5.562,2.323 -7.523,4.139 -1.656,1.533 -3.959,4.491 -4.129,6.211 0.502,3.737 1.541,5.722 3.962,6.261 2.558,0.569 5.71,-0.174 10.058,-1.225 1.302,-0.314 2.929,-0.759 3.632,-0.904 2.662,-0.547 5.125,-1.131 7.114,-1.637 1.703,-0.434 3.377,-0.84 5.141,-0.503 0.841,0.16 1.505,0.388 2.078,1.022 0.698,0.773 1.113,2.093 1.927,1.913 0.001,0 13.737,-7.166 14.875,-7.666 C 2.131,7.879 0.616,6.226 0,0" /></g><g
           transform="translate(326.8053,78.2318)"
           id="g488"><path
             id="path490"
             style="fill:#ffffff;fill-opacity:1;fill-rule:nonzero;stroke:none"
             d="m 0,0 c 0.223,2.597 1.136,6.003 4.198,6.41 4.58,0.62 9.056,-1.253 13.454,-2.278 0,0 -5.339,1.227 -5.339,1.227 C 6.154,6.65 0.933,8.093 0,0" /></g><g
           transform="translate(343.3758,82.8609)"
           id="g492"><path
             id="path494"
             style="fill:#fafafa;fill-opacity:1;fill-rule:nonzero;stroke:none"
             d="M 0,0 C -0.514,-0.144 -1.135,-0.594 -1.482,-0.925 -1.96,-1.38 -2.34,-1.839 -2.695,-2.397 c -0.432,-0.679 0.434,-1.122 1.067,-0.386 0.432,0.503 0.895,1.082 1.694,1.681 0.382,0.286 1.117,0.584 1.553,0.493 C 1.948,-0.678 2.379,-0.77 2.379,-0.77 2.359,-0.156 0.683,0.191 0,0" /></g><g
           transform="translate(350.1824,81.5065)"
           id="g496"><path
             id="path498"
             style="fill:#fafafa;fill-opacity:1;fill-rule:nonzero;stroke:none"
             d="m 0,0 c -0.501,0.226 -0.97,0.224 -1.502,0.026 -0.628,-0.234 -1.117,-0.69 -1.525,-1.202 -0.331,-0.415 -1.074,-1.517 -1.294,-2.005 -0.207,-0.46 0.92,-0.806 1.21,-0.326 0.286,0.474 0.838,1.345 1.218,1.815 0.234,0.288 1.22,1.352 2.034,1.228 L 0.498,-0.557 C 0.554,-0.392 0.37,-0.206 0.227,-0.119 0.153,-0.075 0.078,-0.035 0,0" /></g><g
           transform="translate(354.0658,80.3764)"
           id="g500"><path
             id="path502"
             style="fill:#fafafa;fill-opacity:1;fill-rule:nonzero;stroke:none"
             d="m 0,0 c -0.417,-0.011 -0.664,0.022 -1.011,-0.217 -0.327,-0.226 -0.749,-0.623 -0.972,-0.957 -0.619,-0.923 -0.796,-1.38 -1.1,-2.24 -0.214,-0.609 0.956,-0.808 1.126,-0.41 0.538,1.256 0.812,2.103 1.732,2.849 0.759,0.615 1.292,0.7 1.292,0.7 0.005,0.12 -0.156,0.187 -0.27,0.204 C 0.62,-0.044 0.181,0.005 0,0" /></g><g
           transform="translate(381.0303,90.7415)"
           id="g504"><path
             id="path506"
             style="fill:#ffaaa8;fill-opacity:1;fill-rule:nonzero;stroke:none"
             d="m 0,0 c 0,0 -4.313,-13.088 -5.627,-16.074 -0.42,-0.954 -2.414,-0.746 -3.51,-0.853 -1.096,-0.107 -2.827,-0.279 -3.918,-0.833 -3.228,-1.638 -5.252,-1.612 -5.35,3.115 -0.02,0.968 -0.458,1.525 -1.64,1.68 -0.884,0.117 -1.853,0.02 -2.637,0.461 -0.102,0.126 0.04,0.3 0.168,0.399 0.991,0.754 1.535,1.259 1.97,3.071 1.346,5.605 2.045,10.431 3.511,17.311 z" /></g><g
           transform="translate(391.4151,220.2181)"
           id="g508"><path
             id="path510"
             style="fill:#1a2e35;fill-opacity:1;fill-rule:nonzero;stroke:none"
             d="m 0,0 c 0,0 -6.586,-7.892 -10.568,-22.655 -4.833,-17.92 -6.704,-31.703 -8.216,-41.705 -0.95,-6.284 -1.65,-10.77 -3.358,-22.216 -1.423,-9.536 -7.686,-44.994 -7.686,-44.994 0,0 4.593,-3.974 8.456,-5.436 3.596,-1.36 6.924,-1.903 8.245,-1.36 0,0 4.431,11.379 9.916,26.277 3.448,9.368 5.352,16.14 6.311,21.034 0.717,3.686 0.543,10.244 0.473,13.554 l 29.46,45.508 c 0,0 2.938,3.06 5.5,9.49 3.876,9.727 -1.072,23.742 -1.072,23.742 z" /></g><g
           transform="translate(380.8475,197.5633)"
           id="g512"><path
             id="path514"
             style="fill:#ffffff;fill-opacity:1;fill-rule:nonzero;stroke:none"
             d="m 0,0 c -4.699,-17.561 -7.247,-36.381 -9.881,-54.388 -2.701,-17.657 -6.25,-36.877 -9.379,-54.527 2.759,17.739 6.315,36.904 8.886,54.601 C -7.599,-36.316 -5.075,-17.485 0,0" /></g><g
           transform="translate(420.4103,207.4418)"
           id="g516"><path
             id="path518"
             style="fill:#000000;fill-opacity:1;fill-rule:nonzero;stroke:none"
             d="m 0,0 h -36.184 c -1.193,-2.842 -2.37,-6.137 -3.379,-9.879 -4.323,-16.026 -6.274,-28.735 -7.72,-38.398 0.88,-5.923 1.876,-11.998 2.799,-16.189 2.43,-11.037 3.948,-18.833 5.872,-23.39 1.92,-4.547 6.541,-11.001 6.56,-11.027 3.346,9.139 5.213,15.787 6.157,20.605 0.717,3.685 0.543,10.243 0.473,13.553 l 21.397,33.054 1.664,10.239 C 3.106,-12.521 2.499,-5.838 0,0" /></g><g
           transform="translate(433.0577,70.1196)"
           id="g520"><path
             id="path522"
             style="fill:#ffaaa8;fill-opacity:1;fill-rule:nonzero;stroke:none"
             d="m 0,0 c -1.859,2.971 -2.863,8.693 -6.951,20.318 l -15.91,-13.043 9.433,-14.99 c 0.495,-0.849 0.512,-2.126 0.685,-2.375 C -10.719,-13.001 0,0 0,0" /></g><g
           transform="translate(438.6727,63.7817)"
           id="g524"><path
             id="path526"
             style="fill:#2b454e;fill-opacity:1;fill-rule:nonzero;stroke:none"
             d="m 0,0 c -0.023,0.172 0.068,1.572 0.024,1.74 -0.394,1.509 -1.326,1.926 -2.523,2.769 -1.484,1.045 -2.922,2.296 -3.303,2.824 -0.401,0.556 -0.479,0.843 -1.101,1.096 -1.06,0.431 -2.763,0.466 -4.863,-0.637 -3.439,-1.807 -4.489,-3.982 -4.291,-6.34 0.151,-1.798 0.301,-4.189 -1.284,-5.258 -0.66,-0.444 -1.701,2.428 -1.701,2.428 -0.978,-1.638 0.395,-3.905 1.111,-7.223 0.492,-2.277 0.372,-3.268 0.096,-5.58 -0.348,-2.913 -0.751,-2.901 -2.297,-3.104 -1.332,-0.175 -5.111,0.078 -7.41,-1.527 -3.168,-2.213 -2.321,-5.157 -2.321,-5.157 0.41,-1.12 3.855,-6.552 16.442,-4.524 3.651,0.589 11.322,6.329 11.205,6.865 -0.109,0.499 0.012,1.146 0.029,1.65 0.044,1.287 0.099,2.573 0.156,3.86 0.05,1.173 -0.068,2.537 0.213,3.676 0.252,1.015 0.371,1.986 0.469,3.041 0.241,2.584 0.482,5.168 0.723,7.752 C -0.557,-0.905 0.1,-0.734 0,0" /></g><g
           transform="translate(440.2578,64.2919)"
           id="g528"><path
             id="path530"
             style="fill:#000000;fill-opacity:1;fill-rule:nonzero;stroke:none"
             d="m 0,0 c 1.241,-1.201 0.486,-4.687 -1.178,-8.87 -0.739,-1.855 -2.115,-5.05 -1.711,-8.446 0.404,-3.395 0.476,-5 -0.399,-6.59 -1.37,-2.49 -8.687,-5.676 -13,-6.674 0,0 3.951,4.961 4.385,12.456 0.433,7.495 1.005,12.326 4.433,15.65 C -3.137,1.729 0,0 0,0" /></g><g
           transform="translate(408.8096,39.8128)"
           id="g532"><path
             id="path534"
             style="fill:#1a2e35;fill-opacity:1;fill-rule:nonzero;stroke:none"
             d="m 0,0 c 0,0 2.525,-4.729 12.263,-4.575 3.833,0.061 5.885,1.928 5.979,7.755 0.114,7.023 0.679,14.115 2.95,17.601 2.271,3.486 5.889,5.177 8.695,4.928 0.488,-0.077 1.104,-0.543 1.561,-1.23 0,0 -2.809,0.923 -7.178,-2.703 C 21.044,19.098 20.172,13.507 20.221,6.563 20.242,3.574 20.424,0.186 19.548,-2.082 18.741,-4.172 16.953,-5.603 14.898,-6.18 9.603,-7.667 2.358,-5.216 0.526,-2.979 -0.525,-1.487 0,0 0,0" /></g><g
           transform="translate(420.5083,47.7717)"
           id="g536"><path
             id="path538"
             style="fill:#fafafa;fill-opacity:1;fill-rule:nonzero;stroke:none"
             d="m 0,0 c 0,0 -0.71,-0.502 -0.788,-1.162 -0.077,-0.66 0.151,-2.186 1.534,-3.049 0.587,-0.366 1.098,-0.238 0.167,0.993 C -0.018,-1.988 0,0 0,0" /></g><g
           transform="translate(421.0321,51.4064)"
           id="g540"><path
             id="path542"
             style="fill:#fafafa;fill-opacity:1;fill-rule:nonzero;stroke:none"
             d="m 0,0 c 0,0 -0.309,-0.2 -0.387,-1.175 -0.042,-0.524 0.772,-2.631 1.797,-3.134 1.025,-0.502 0.47,0.68 0.026,1.26 C 0.949,-2.413 0.09,-0.967 0,0" /></g><g
           transform="translate(420.6869,55.4221)"
           id="g544"><path
             id="path546"
             style="fill:#fafafa;fill-opacity:1;fill-rule:nonzero;stroke:none"
             d="M 0,0 C 0,0 -0.333,-0.092 0.023,-1.436 0.142,-1.889 1.484,-3.22 2.145,-3.299 2.806,-3.378 3.126,-3.048 2.316,-2.46 1.677,-1.997 0.124,-0.652 0,0" /></g><g
           transform="translate(414.2701,220.2181)"
           id="g548"><path
             id="path550"
             style="fill:#1a2e35;fill-opacity:1;fill-rule:nonzero;stroke:none"
             d="m 0,0 c 1.72,-1.762 6.002,-7.667 6.7,-16.756 0.296,-3.848 -0.799,-11.102 -5.295,-16.561 -1.375,-20.16 -2.684,-58.222 -2.684,-58.222 4.679,-6.608 5.864,-10.849 8.948,-20.681 1.872,-5.968 8.355,-29.657 8.355,-29.657 -9.483,-1.426 -15.24,-9.765 -15.24,-9.765 0,0 -13.145,21.17 -21.888,35.904 -6.395,10.778 -8.592,15.422 -10.737,21.535 -1.971,5.616 -3.396,12.418 -5.317,25.536 -1.921,13.117 -3.803,30.393 -4.744,43.306 -0.94,12.913 -0.399,26.411 -0.399,26.411 z" /></g><g
           transform="translate(415.0537,68.576)"
           id="g552"><path
             id="path554"
             style="fill:#ffffff;fill-opacity:1;fill-rule:nonzero;stroke:none"
             d="m 0,0 c -4.535,7.175 -13.484,21.62 -17.873,28.876 -5.752,9.727 -12.162,19.266 -15.504,30.175 -2.731,11.009 -4.633,22.184 -6.026,33.43 -1.408,11.234 -2.535,22.504 -3.282,33.8 0.457,-5.642 1.012,-11.274 1.631,-16.899 1.786,-16.854 3.96,-33.757 8.156,-50.196 3.265,-10.848 9.629,-20.428 15.308,-30.14 C -17.59,29.046 0,0 0,0" /></g><g
           transform="translate(431.3607,204.4179)"
           id="g556"><path
             id="path558"
             style="fill:#000000;fill-opacity:1;fill-rule:nonzero;stroke:none"
             d="m 0,0 c -1.308,0.374 -3.168,1.624 -3.871,2.748 -0.422,0.676 -0.677,1.637 -1,2.854 -0.353,1.328 -0.792,2.982 -1.627,4.845 L -7.494,10.001 C -6.696,8.218 -6.287,6.68 -5.927,5.321 -5.579,4.016 -5.306,2.985 -4.797,2.17 -3.961,0.833 -1.799,-0.68 -0.094,-1.088 -0.056,-0.726 -0.024,-0.364 0,0" /></g><g
           transform="translate(405.4691,192.8652)"
           id="g560"><path
             id="path562"
             style="fill:#000000;fill-opacity:1;fill-rule:nonzero;stroke:none"
             d="M 0,0 C 0.277,0.007 0.514,0.031 0.697,0.07 2.279,0.42 3.509,1.483 5.96,4.617 7.825,7.004 7.634,8.718 7.32,11.558 7.204,12.6 6.105,18.173 6.036,19.643 L 4.99,19.061 C 5.061,17.558 6.118,12.496 6.235,11.438 6.548,8.615 6.69,7.326 5.1,5.29 2.834,2.392 1.751,1.422 0.462,1.137 -0.787,0.855 -6.32,1.773 -7.795,2.793 -8.646,3.385 -10.073,10.67 -10.906,17.08 l -1.083,-0.141 C -11.568,13.699 -10.065,3.035 -8.416,1.895 -6.952,0.882 -2.199,-0.058 0,0" /></g><g
           transform="translate(394.8972,296.7121)"
           id="g564"><path
             id="path566"
             style="fill:#ffaaa8;fill-opacity:1;fill-rule:nonzero;stroke:none"
             d="M 0,0 1.992,-14.584 21.803,-13.576 19.66,2.218 Z" /></g><g
           transform="translate(387.0093,323.9834)"
           id="g568"><path
             id="path570"
             style="fill:#ff9090;fill-opacity:1;fill-rule:nonzero;stroke:none"
             d="m 0,0 c -1.522,-1.935 -6.178,-7.194 -7.009,-8.569 l 4.436,-2.696 z" /></g><g
           transform="translate(387.0093,323.9835)"
           id="g572"><path
             id="path574"
             style="fill:#ffffff;fill-opacity:1;fill-rule:nonzero;stroke:none"
             d="M 0,0 C -2.023,-3.104 -4.598,-5.774 -7.009,-8.569 -5.148,-5.365 -2.548,-2.668 0,0" /></g><g
           transform="translate(398.024,338.6499)"
           id="g576"><path
             id="path578"
             style="fill:#ffaaa8;fill-opacity:1;fill-rule:nonzero;stroke:none"
             d="m 0,0 c -6.122,0.658 -10.092,-3.681 -11.871,-16.709 -0.07,-0.51 -0.826,-1.312 -1.398,-3.261 -2.452,-8.362 -1.08,-16.323 0.333,-18.441 3.547,-2.852 7.489,-3.916 13.202,-3.43 4.354,0.37 15.455,1.693 21.086,7.57 6.622,6.915 9.966,17.336 5.262,22.743 C 19.995,-3.918 3.373,-0.363 0,0" /></g><g
           transform="translate(398.024,338.6499)"
           id="g580"><path
             id="path582"
             style="fill:#ffffff;fill-opacity:1;fill-rule:nonzero;stroke:none"
             d="m 0,0 c -9.204,0.771 -10.477,-10.471 -11.79,-17.215 -2.51,-4.754 -2.896,-10.468 -2.507,-15.757 0.205,-1.855 0.454,-3.773 1.361,-5.439 -0.981,1.63 -1.317,3.551 -1.604,5.411 -0.562,5.357 -0.218,11.151 2.304,16.001 C -11.025,-10.224 -9.25,1.211 0,0" /></g><g
           transform="translate(385.0884,300.2388)"
           id="g584"><path
             id="path586"
             style="fill:#ff9090;fill-opacity:1;fill-rule:nonzero;stroke:none"
             d="m 0,0 c 0.783,-1.171 6.389,-4.047 9.91,-4.271 l -0.332,2.74 c 0,0 -4.757,0.019 -9.578,1.531" /></g><g
           transform="translate(396.8146,315.8174)"
           id="g588"><path
             id="path590"
             style="fill:#375a64;fill-opacity:1;fill-rule:nonzero;stroke:none"
             d="m 0,0 c 0.425,-0.997 1.435,-1.085 2.045,-0.338 0.732,0.896 1.306,1.862 2.234,2.588 1.072,0.841 2.425,1.383 3.784,1.279 5.138,-0.391 3.885,-7.16 1.362,-9.515 -4.128,-3.856 -6.323,-0.526 -6.323,-0.526 0,0 -2.963,-6.548 1.357,-10.374 0,0 7.457,-3.224 13.314,-1.406 4.383,4.722 7.315,7.7 10.261,11.762 6.981,9.624 6.99,19.139 2.514,21.861 0.252,3.416 -1.597,8.548 -8.609,11.512 -6.683,2.825 -11.155,2.545 -15.986,2.276 -4.832,-0.269 -10.771,-2.472 -15.255,1.276 -1.124,-2.688 -0.837,-5.922 0.744,-8.369 -1.427,0.64 -3.304,-0.047 -3.98,-1.457 -0.675,-1.41 -0.035,-3.304 1.358,-4.014 -0.988,-0.49 -1.447,-1.783 -1.093,-2.828 0.354,-1.045 1.412,-1.775 2.512,-1.855 1.164,-0.086 1.891,0.026 3.036,0.194 1.41,-3.947 5.863,-5.327 8.509,-5.16 C 1.71,6.92 1.368,6.365 1.318,6.293 1.167,6.072 1.027,5.844 0.898,5.61 0.641,5.141 0.429,4.647 0.266,4.138 -0.06,3.119 -0.192,2.037 -0.107,0.971 -0.081,0.635 -0.135,0.317 0,0" /></g><g
           transform="translate(387.513,346.2119)"
           id="g592"><path
             id="path594"
             style="fill:#ffffff;fill-opacity:1;fill-rule:nonzero;stroke:none"
             d="m 0,0 c -1.062,-2.71 -0.752,-5.901 0.822,-8.318 l 0.172,-0.264 -0.289,0.128 c -3.524,1.306 -5.756,-3.372 -2.538,-5.297 0,0 0.177,-0.091 0.177,-0.091 l -0.178,-0.087 c -2.508,-1.602 -0.667,-4.788 2.015,-4.579 0.8,-0.03 1.6,0.076 2.396,0.179 -1.185,-0.19 -2.412,-0.41 -3.608,-0.157 -2.22,0.49 -3.01,3.561 -0.891,4.736 -0.001,0 -0.001,-0.178 -0.001,-0.178 -3.513,2.061 -1.096,7.087 2.705,5.645 L 0.664,-8.42 C -0.922,-5.937 -1.186,-2.67 0,0" /></g><g
           transform="translate(424.7725,288.6186)"
           id="g596"><path
             id="path598"
             style="fill:#d268cc;fill-opacity:1;fill-rule:nonzero;stroke:none"
             d="m 0,0 c 5.139,-2.876 9.043,-12.478 8.664,-20.493 -0.239,-5.072 -2.022,-18.169 -3.541,-29.749 -0.478,-3.649 0.974,-9.804 1.647,-17.206 0.499,-5.489 0.566,-11.327 0.566,-11.327 0,0 -6.886,-8.526 -25.793,-9.638 -24.133,-1.421 -34.822,4.415 -34.822,4.415 0,0 -0.148,19.664 0.433,35.236 0.863,23.093 0.912,29.848 4.521,37.709 1.194,2.324 2.443,7.498 6.375,8.52 3.115,0.81 10.302,2.531 13.147,2.965 4.665,-1.202 16.763,-1.302 19.759,1.25 l -0.05,0.672 C -3.902,2.416 -3.171,1.774 0,0" /></g><g
           transform="translate(295.4599,229.537)"
           id="g600"><path
             id="path602"
             style="fill:#375a64;fill-opacity:1;fill-rule:nonzero;stroke:none"
             d="m 0,0 c 0.789,-0.181 1.847,0.234 2.997,1.244 2.158,1.895 4.079,5.46 4.475,8.304 0.211,1.516 -0.024,2.628 -0.61,3.188 C 6.489,13.092 2.676,16.734 2.125,17.26 1.162,18.18 -0.793,18.591 -2.59,17.659 -6.557,15.6 -9.773,9.631 -9.311,5.186 -9.101,3.172 -0.503,0.116 0,0" /></g><g
           transform="translate(302.682,239.5456)"
           id="g604"><path
             id="path606"
             style="fill:#1a2e35;fill-opacity:1;fill-rule:nonzero;stroke:none"
             d="M 0,0 C -0.047,1.595 -0.639,2.699 -1.56,3.195 -2.48,3.691 -3.728,3.578 -5.086,2.74 -7.801,1.064 -9.927,-2.88 -9.833,-6.069 c 0.047,-1.595 0.64,-2.699 1.56,-3.195 0.92,-0.496 2.169,-0.383 3.526,0.455 C -2.031,-7.133 0.094,-3.189 0,0" /></g><g
           transform="translate(327.4804,215.7908)"
           id="g608"><path
             id="path610"
             style="fill:#375a64;fill-opacity:1;fill-rule:nonzero;stroke:none"
             d="m 0,0 c 0.552,-0.281 1.291,-0.205 2.086,0.288 1.577,0.979 2.803,3.255 2.753,5.11 -0.025,0.936 -0.368,1.594 -0.906,1.901 -0.329,0.187 -29.648,16.91 -30.12,17.18 -0.782,0.446 -1.805,0.464 -2.88,-0.057 -2.172,-1.055 -3.697,-3.885 -3.383,-6.278 0.156,-1.185 0.733,-2.029 1.537,-2.437 C -30.428,15.461 -0.337,0.171 0,0" /></g><g
           transform="translate(332.3195,221.1892)"
           id="g612"><path
             id="path614"
             style="fill:#1a2e35;fill-opacity:1;fill-rule:nonzero;stroke:none"
             d="m 0,0 c -0.025,0.936 -0.368,1.594 -0.906,1.9 -0.542,0.309 -1.281,0.262 -2.088,-0.22 -1.629,-0.972 -2.893,-3.319 -2.809,-5.213 0.041,-0.94 0.408,-1.583 0.964,-1.865 0.552,-0.281 1.29,-0.206 2.086,0.288 C -1.176,-4.131 0.05,-1.856 0,0" /></g><g
           transform="translate(365.2508,225.6473)"
           id="g616"><path
             id="path618"
             style="fill:#ffaaa8;fill-opacity:1;fill-rule:nonzero;stroke:none"
             d="m 0,0 c 2.723,0.909 4.725,4.067 8.634,12.178 4.872,10.109 7.508,12.381 11.087,22.72 3.005,7.575 -0.969,21.532 -2.817,24.447 C 10.806,57.169 6.564,55.164 2.454,46.622 -1.242,38.939 -8.634,23.447 -11.996,16.633 c 0,0 -19.618,-4.23 -24.889,-4.584 -2.042,-0.137 -4.077,0.164 -5.934,1.109 -1.137,0.579 -2.26,0.847 -3.567,0.843 -0.484,-0.002 -0.974,-0.042 -1.429,-0.207 -0.897,-0.324 -1.55,-1.083 -2.236,-1.746 -1.246,-1.206 -2.768,-1.978 -4.13,-3.002 -1.588,-1.194 -3.463,-2.017 -5.069,-3.21 -1.376,-1.021 -2.904,-1.869 -3.775,-3.412 -0.144,-0.256 -0.272,-0.526 -0.314,-0.816 -0.073,-0.507 0.133,-1.028 0.476,-1.407 0.343,-0.379 0.811,-0.628 1.298,-0.784 0.654,-0.21 1.414,-0.278 1.982,-0.697 0.649,-0.48 0.704,-1.426 1.295,-1.992 0.916,-0.879 2.432,-0.747 3.478,-1.467 0.813,-0.56 1.255,-1.579 2.129,-2.038 0.459,-0.241 0.988,-0.3 1.503,-0.355 0.914,-0.098 1.825,-0.375 2.748,-0.374 1.1,0.001 1.577,0.52 2.49,1.028 3.142,1.748 4.838,3.855 10.393,4.225 C -31.822,-2.005 -2.723,-0.909 0,0" /></g><g
           transform="translate(382.7409,286.0858)"
           id="g620"><path
             id="path622"
             style="fill:#375a64;fill-opacity:1;fill-rule:nonzero;stroke:none"
             d="m 0,0 c -6.633,-1.573 -10.551,-3.958 -14.915,-11.957 -4.04,-7.406 -14.956,-31.093 -14.956,-31.093 l -10.959,-3.088 c 0,0 -2.788,-3.51 -1.697,-8.871 1.044,-5.135 3.322,-7.443 3.322,-7.443 0,0 5.611,0.154 15.175,0.487 9.421,0.327 10.252,2.544 12.35,6.697 2.098,4.152 14.972,29.26 14.972,29.26 0,0 5.167,18.525 -3.292,26.008" /></g><g
           transform="translate(395.969,289.0502)"
           id="g624"><path
             id="path626"
             style="fill:#ffffff;fill-opacity:1;fill-rule:nonzero;stroke:none"
             d="m 0,0 c -4.456,-0.822 -8.858,-1.956 -13.237,-3.104 -2.774,-0.567 -6.613,-2.003 -9.043,-4.225 -4.239,-3.811 -6.484,-9.206 -9.013,-14.198 -3.978,-8.14 -7.749,-16.381 -11.594,-24.585 l -0.046,-0.098 -0.103,-0.029 -10.965,-3.058 c -5.338,-0.816 -11.022,-2.603 -16.422,-2.102 -1.863,0.17 -3.432,1.38 -5.22,1.729 -0.879,0.146 -1.822,0.208 -2.673,-0.01 -0.855,-0.241 -1.507,-0.919 -2.155,-1.56 -2.767,-2.479 -6.078,-4.167 -9.164,-6.14 -1.456,-1.09 -3.17,-1.973 -4.108,-3.599 0.912,1.643 2.622,2.56 4.058,3.671 3.046,2.008 6.343,3.783 9.035,6.248 0.641,0.637 1.313,1.363 2.259,1.639 0.935,0.241 1.877,0.176 2.8,0.031 1.835,-0.341 3.339,-1.532 5.216,-1.698 5.411,-0.452 10.941,1.343 16.28,2.185 -0.077,-0.02 10.948,3.117 10.932,3.113 0,0 -0.148,-0.126 -0.148,-0.126 3.772,8.241 7.673,16.422 11.672,24.559 2.572,5.013 4.868,10.43 9.167,14.249 2.603,2.223 6.04,3.696 9.336,4.203 C -9.305,-1.83 -4.281,-0.752 0,0" /></g><g
           id="g628"><g
             id="g630" /><g
             id="g642"><g
               style="opacity:0.30000299"
               id="g640"
               clip-path="url(#clipPath634)"><g
                 id="g638"
                 transform="translate(439.2381,213.9159)"><path
                   id="path636"
                   style="fill:#000000;fill-opacity:1;fill-rule:nonzero;stroke:none"
                   d="m 0,0 c -0.58,-2.15 -2.24,-3.79 -3.51,-5.61 -2.54,-3.64 -3.59,-8.17 -6.24,-11.74 0,-0.01 -0.01,-0.01 -0.02,-0.02 0,0 -0.001,-10e-4 -0.01,-0.01 0.164,0.38 0.328,0.773 0.49,1.18 1.4,3.5 1.64,7.56 1.39,11.33 0.53,0.49 0.77,0.8 0.77,0.8 0,0 -0.07,5.84 -0.57,11.32 -0.67,7.41 -2.12,13.56 -1.64,17.21 0.57,4.347 1.178,8.907 1.726,13.177 0.002,-0.002 0.003,-0.004 0.004,-0.007 V 37.62 C -6.08,34.56 -4.7,31.44 -3.6,28.25 -0.9,20.4 -0.23,12.04 0.2,3.81 0.27,2.53 0.33,1.23 0,0 M 10.62,22.07 C 10.13,28.26 8.9,32.65 7.67,36.52 6.43,40.39 0.8,59.22 -3.42,66.96 c -4.22,7.74 -8.64,9.37 -16.55,9.96 v -0.002 c -0.93,0.115 -2.064,0.16 -3.59,0.142 0,0 0.03,-0.38 0.04,-0.57 l -0.99,7.27 c 4.3,4.63 7.21,7.6 10.12,11.61 6.98,9.63 6.99,19.14 2.51,21.86 0.26,3.42 -1.59,8.55 -8.6,11.51 -2.63,1.11 -4.91,1.74 -7,2.08 -2.36,-0.28 -4.69,-0.78 -6.94,-1.51 -3.11,-1 -6.2,-2.53 -8.18,-5.13 -1.72,-2.28 -2.43,-5.14 -3.1,-7.91 -2.15,-8.89 -4.3,-17.95 -3.59,-27.06 0.12,-1.55 0.34,-3.13 1.12,-4.47 0.69,-1.16 2.32,-2.44 3.93,-2.68 0,0 4.31,-0.28 6.47,-0.32 0.3,-1.84 0.73,-4.6 1.03,-6.44 0.1,-0.62 0.2,-1.29 -0.08,-1.85 -0.37,-0.74 -1.24,-1.05 -2.03,-1.27 -7.82,-2.15 -16.94,-2.34 -22.44,-8.3 -2.06,-2.23 -3.34,-5.04 -4.6,-7.8 -2.86,-6.3 -5.72,-12.6 -8.58,-18.89 -1.86,-4.11 -3.85,-8.38 -7.4,-11.16 -6.41,-5.02 -15.56,-3.66 -23.46,-5.61 -5.73,-1.42 -10.83,-4.61 -16.5,-6.19 -1.3,-0.37 -2.6,-0.72 -3.92,-0.98 -1.38,-0.27 -2.78,-0.15 -4.16,-0.36 -1,-0.15 -2.08,-0.88 -2.21,-1.95 -0.05,-0.45 0.07,-1.2 0.27,-1.61 0.19,-0.38 0.46,-1.08 1.31,-1.68 0.61,-0.16 1.23,-0.31 1.74,-0.66 0.82,-0.56 1.26,-1.58 2.13,-2.04 0.46,-0.24 0.99,-0.3 1.5,-0.35 0.92,-0.1 1.83,-0.38 2.75,-0.37 1.1,0 1.58,0.52 2.49,1.02 0.25,0.14 0.48,0.28 0.71,0.42 2.72,1.65 4.57,3.47 9.69,3.81 0.25,0.02 0.6,0.04 1.06,0.06 2.32,0.12 7.11,0.33 12.42,0.58 0.22,-0.27 0.35,-0.4 0.35,-0.4 0,0 5.61,0.15 15.17,0.48 9.42,0.33 10.25,2.55 12.35,6.7 0.16,0.31 0.38,0.74 0.64,1.26 v -0.05 c 3.07,5.97 8.53,16.73 10.33,20.24 0,0 -0.66,-28.97 -0.59,-41.59 0.13,-23.47 3.81,-46.75 7.47,-69.93 0.91,-5.7 3.33,-11.12 5.36,-16.55 2.24,-6.01 4.55,-11.99 7.03,-17.9 4.87,-11.63 10.41,-23.03 17.22,-33.67 1.48,-2.32 3.04,-4.63 3.95,-7.23 1.26,-3.61 1.19,-7.53 1.07,-11.34 -0.09,-3.14 -0.22,-6.33 -1.35,-9.26 -2.04,-5.34 -8.95,-5.85 -13.27,-2.7 -0.39,-1.28 -0.11,-2.28 -0.11,-2.28 0,0 -0.52,-1.49 0.53,-2.98 1.83,-2.24 9.07,-4.69 14.37,-3.2 0.09,0.02 0.18,0.06 0.26,0.08 4.31,0.99 11.63,4.18 13,6.67 0.88,1.59 0.81,3.2 0.4,6.59 -0.4,3.4 0.97,6.59 1.71,8.45 1.67,4.18 2.42,7.66 1.18,8.87 -0.46,0.68 -1.07,1.15 -1.56,1.23 -0.4,1.5 -1.33,1.92 -2.52,2.76 -1.49,1.05 -2.93,2.3 -3.31,2.83 -0.31,0.43 -0.43,0.7 -0.76,0.92 -0.64,1.54 -1.26,3.58 -2.07,6.25 0.09,0.02 0.17,0.04 0.26,0.05 0,0 -6.49,23.69 -8.36,29.66 -3.08,9.83 -4.27,14.07 -8.95,20.68 0,0 0.85,24.65 1.9,44.78 l 9.56,14.77 c 0,0 2.245,2.337 4.52,7.218 -0.027,-0.057 -0.053,-0.122 -0.08,-0.178 0.17,-0.05 0.36,-0.08 0.58,-0.07 2.12,0.02 3.63,1.99 5.2,3.09 0.42,0.29 0.74,0.33 0.98,0.24 0.04,0.02 0.07,0.05 0.11,0.07 1.69,0.81 1.79,-2.97 1.76,-3.81 -0.07,-1.92 -0.67,-3.8 -1.38,-5.58 -1.18,-2.94 -2.67,-5.9 -2.53,-9.06 0,-0.22 0.03,-0.44 0.09,-0.65 0.7,0.35 0.96,1.49 1.33,2.09 0.52,0.84 1.14,1.11 1.93,1.65 0.88,0.59 1.47,1.46 2.24,2.13 0.74,0.64 1.88,0.54 2.74,1.19 0.77,0.58 0.73,1.48 1.27,2.14 0.51,0.64 1.37,0.85 1.92,1.53 0.82,1.02 1.47,2.33 1.65,3.64 0.38,2.83 1.11,5.57 1.1,8.42 -0.01,2.74 -0.03,5.33 0.15,8.04 0.27,4.23 1.13,11.06 1.47,16.74 0.31,0.26 0.41,0.46 0.41,0.46 0,0 0.31,3.71 -0.05,8.46 M -60.73,-70.9 c -4.56,-17.04 -7.92,-34.41 -10.02,-51.93 -0.68,-5.67 -1.54,-11.95 -5.93,-15.59 -3.37,-2.79 -8.02,-3.31 -12.38,-3.63 -8.18,-0.58 -17.05,-0.63 -23.91,3.65 0.88,-2.43 3.27,-5.32 7.12,-7.58 4.46,-2.61 14.26,-4.38 17.15,-5.19 2.88,-0.81 7.32,-3.84 10.01,-5.22 4.9,-2.5 8.9,-2.21 11.13,-1.1 0.87,0.44 1.24,1.38 1.49,2.22 0.59,1.98 0.54,2.43 0.32,2.48 l -0.01,0.01 c 0.64,1.86 1.13,4.27 1.3,5.9 0.59,6 2.01,7.75 0.94,8.39 0.57,1.44 1.43,3.86 2.29,6.35 0.09,0.03 0.2,0.04 0.28,0.08 0,0 4.43,11.38 9.92,26.27 0.37,1.01 0.72,1.99 1.06,2.94 -3.72,6.37 -5.62,10.13 -6.84,14.95 -1.2,4.73 -2.52,9.39 -3.92,17" /></g></g></g></g></g></g><g
       id="g644"><g
         clip-path="url(#clipPath650)"
         id="g646"><g
           transform="translate(212.7054,343.5302)"
           id="g652"><path
             id="path654"
             style="fill:#d268cc;fill-opacity:1;fill-rule:nonzero;stroke:none"
             d="M 0,0 V 25.261 L -10.502,19.198 V -6.063 l -14.496,-8.37 17.016,63.971 -11.29,-6.518 -18.245,-68.218 v -9.763 l 27.015,15.597 V -33.982 L 0,-27.919 v 14.618 l 7.104,4.102 V 4.102 Z m -68.358,-44.062 c -9.268,-5.35 -16.781,0.329 -16.781,12.68 0,12.357 7.513,26.711 16.781,32.062 9.268,5.351 16.776,-0.331 16.776,-12.688 0,-12.351 -7.508,-26.703 -16.776,-32.054 m 0,58.741 c -15.066,-8.699 -27.279,-32.035 -27.279,-52.123 0,-20.087 12.213,-29.32 27.279,-20.622 15.066,8.698 27.279,32.034 27.279,52.122 0,20.087 -12.213,29.321 -27.279,20.623 m -38.211,-50.945 -10.501,-6.063 V -67.59 l -14.497,-8.37 17.016,63.971 -11.289,-6.518 -18.245,-68.219 v -9.763 l 27.015,15.598 V -95.51 l 10.501,6.063 v 14.619 l 7.105,4.101 v 13.301 l -7.105,-4.101 z" /></g></g></g><g
       id="g656"><g
         clip-path="url(#clipPath662)"
         id="g658"><g
           transform="translate(104.6882,348.1918)"
           id="g664"><path
             id="path666"
             style="fill:#2b454e;fill-opacity:1;fill-rule:nonzero;stroke:none"
             d="M 0,0 C 0.072,0.042 0.134,0.043 0.187,0.003 0.238,-0.036 0.265,-0.104 0.265,-0.2 V -1.128 C 0.265,-1.224 0.238,-1.322 0.187,-1.422 0.134,-1.522 0.072,-1.592 0,-1.634 l -4.305,-2.485 c -0.072,-0.042 -0.133,-0.042 -0.186,-0.003 -0.052,0.039 -0.078,0.107 -0.078,0.203 v 8.445 c 0,0.096 0.026,0.194 0.078,0.294 0.053,0.1 0.114,0.171 0.186,0.212 l 4.226,2.44 C -0.007,7.514 0.055,7.514 0.107,7.475 0.16,7.435 0.187,7.367 0.187,7.271 V 6.344 C 0.187,6.247 0.16,6.15 0.107,6.049 0.055,5.95 -0.007,5.879 -0.079,5.837 L -3.246,4.009 V 1.931 l 2.952,1.704 c 0.071,0.041 0.133,0.042 0.186,0.003 0.052,-0.04 0.079,-0.108 0.079,-0.204 V 2.506 C -0.029,2.411 -0.056,2.313 -0.108,2.213 -0.161,2.112 -0.223,2.043 -0.294,2.001 L -3.246,0.297 v -2.171 z" /></g><g
           transform="translate(107.4919,353.2099)"
           id="g668"><path
             id="path670"
             style="fill:#2b454e;fill-opacity:1;fill-rule:nonzero;stroke:none"
             d="M 0,0 1.422,0.821 C 1.795,1.036 2.092,1.294 2.314,1.598 2.536,1.9 2.648,2.295 2.648,2.783 2.648,3.271 2.536,3.534 2.314,3.571 2.092,3.608 1.795,3.52 1.422,3.304 L 0,2.483 Z M 1.471,4.967 C 2.288,5.439 2.909,5.545 3.334,5.284 3.759,5.024 3.972,4.445 3.972,3.548 3.972,2.911 3.861,2.306 3.643,1.73 3.424,1.155 3.102,0.636 2.677,0.172 L 4.03,-2.275 C 4.049,-2.316 4.06,-2.358 4.06,-2.401 4.06,-2.48 4.038,-2.56 3.996,-2.641 3.953,-2.723 3.902,-2.78 3.844,-2.814 L 3.01,-3.296 C 2.88,-3.371 2.783,-3.385 2.721,-3.338 2.659,-3.291 2.615,-3.24 2.589,-3.186 L 1.304,-0.881 0,-1.634 V -4.681 C 0,-4.776 -0.026,-4.875 -0.078,-4.974 -0.13,-5.073 -0.193,-5.145 -0.265,-5.186 l -0.794,-0.459 c -0.072,-0.041 -0.133,-0.042 -0.186,-0.002 -0.053,0.039 -0.078,0.106 -0.078,0.202 V 3 c 0,0.096 0.025,0.194 0.078,0.295 0.053,0.1 0.114,0.17 0.186,0.212 z" /></g><g
           transform="translate(114.0603,357.0023)"
           id="g672"><path
             id="path674"
             style="fill:#2b454e;fill-opacity:1;fill-rule:nonzero;stroke:none"
             d="M 0,0 1.422,0.821 C 1.795,1.036 2.092,1.295 2.314,1.598 2.537,1.9 2.647,2.295 2.647,2.783 2.647,3.272 2.537,3.534 2.314,3.571 2.092,3.608 1.795,3.52 1.422,3.304 L 0,2.483 Z M 1.471,4.967 C 2.288,5.439 2.909,5.545 3.334,5.284 3.759,5.025 3.972,4.445 3.972,3.548 3.972,2.911 3.862,2.306 3.643,1.73 3.424,1.155 3.103,0.636 2.677,0.172 L 4.03,-2.275 C 4.05,-2.316 4.059,-2.358 4.059,-2.401 4.059,-2.48 4.039,-2.56 3.996,-2.641 3.953,-2.723 3.902,-2.78 3.844,-2.814 L 3.011,-3.295 C 2.88,-3.371 2.783,-3.385 2.721,-3.338 2.659,-3.291 2.615,-3.24 2.589,-3.186 L 1.305,-0.881 0,-1.634 V -4.681 C 0,-4.776 -0.026,-4.874 -0.077,-4.974 -0.13,-5.073 -0.192,-5.145 -0.265,-5.186 l -0.794,-0.459 c -0.072,-0.041 -0.133,-0.041 -0.185,-0.002 -0.053,0.039 -0.079,0.107 -0.079,0.202 v 8.446 c 0,0.095 0.026,0.193 0.079,0.294 0.052,0.1 0.113,0.17 0.185,0.212 z" /></g><g
           transform="translate(123.5134,363.1005)"
           id="g676"><path
             id="path678"
             style="fill:#2b454e;fill-opacity:1;fill-rule:nonzero;stroke:none"
             d="M 0,0 C -0.026,0.612 -0.179,1.01 -0.456,1.194 -0.734,1.378 -1.102,1.337 -1.56,1.073 -2.018,0.809 -2.384,0.425 -2.662,-0.08 c -0.277,-0.504 -0.43,-1.078 -0.456,-1.72 -0.013,-0.339 -0.02,-0.711 -0.02,-1.116 0,-0.405 0.007,-0.77 0.02,-1.094 0.026,-0.612 0.179,-1.008 0.456,-1.187 0.278,-0.181 0.644,-0.138 1.102,0.126 0.458,0.264 0.826,0.646 1.104,1.148 0.277,0.5 0.43,1.071 0.456,1.713 0.013,0.339 0.02,0.711 0.02,1.117 C 0.02,-0.688 0.013,-0.324 0,0 m -4.441,-2.499 c 0.018,0.499 0.089,0.999 0.21,1.5 0.121,0.502 0.299,0.979 0.534,1.433 0.235,0.454 0.53,0.877 0.883,1.268 0.353,0.392 0.771,0.727 1.254,1.006 0.478,0.276 0.893,0.423 1.247,0.444 C 0.039,3.173 0.333,3.09 0.568,2.903 0.804,2.717 0.983,2.446 1.107,2.091 1.231,1.734 1.304,1.314 1.323,0.83 1.329,0.667 1.334,0.487 1.338,0.288 1.341,0.09 1.343,-0.116 1.343,-0.329 1.343,-0.543 1.341,-0.751 1.338,-0.953 1.334,-1.156 1.329,-1.342 1.323,-1.51 1.304,-2.01 1.233,-2.511 1.113,-3.012 0.991,-3.514 0.814,-3.99 0.578,-4.444 0.343,-4.899 0.047,-5.319 -0.309,-5.708 -0.666,-6.097 -1.082,-6.429 -1.56,-6.705 c -0.483,-0.279 -0.901,-0.429 -1.254,-0.45 -0.353,-0.02 -0.648,0.06 -0.883,0.242 -0.235,0.183 -0.413,0.454 -0.534,0.816 -0.121,0.362 -0.192,0.781 -0.21,1.258 -0.007,0.161 -0.013,0.341 -0.015,0.541 -0.004,0.198 -0.005,0.404 -0.005,0.618 0,0.213 0.001,0.421 0.005,0.623 0.002,0.203 0.008,0.388 0.015,0.558" /></g><g
           transform="translate(127.4538,364.7348)"
           id="g680"><path
             id="path682"
             style="fill:#2b454e;fill-opacity:1;fill-rule:nonzero;stroke:none"
             d="M 0,0 1.421,0.821 C 1.794,1.036 2.091,1.294 2.314,1.598 2.536,1.9 2.646,2.295 2.646,2.783 2.646,3.271 2.536,3.534 2.314,3.571 2.091,3.608 1.794,3.52 1.421,3.304 L 0,2.483 Z M 1.471,4.967 C 2.287,5.439 2.909,5.545 3.334,5.284 3.758,5.024 3.972,4.445 3.972,3.548 3.972,2.911 3.861,2.306 3.643,1.73 3.423,1.155 3.102,0.636 2.677,0.172 L 4.029,-2.275 C 4.049,-2.316 4.06,-2.358 4.06,-2.401 4.06,-2.48 4.038,-2.56 3.996,-2.641 3.953,-2.723 3.902,-2.78 3.844,-2.814 L 3.01,-3.295 C 2.88,-3.371 2.783,-3.385 2.721,-3.338 2.658,-3.291 2.614,-3.24 2.589,-3.186 L 1.304,-0.881 0,-1.634 v -3.047 c 0,-0.095 -0.026,-0.194 -0.078,-0.293 -0.053,-0.099 -0.115,-0.171 -0.187,-0.212 l -0.794,-0.459 c -0.072,-0.041 -0.133,-0.042 -0.186,-0.002 -0.053,0.039 -0.079,0.106 -0.079,0.202 V 3 c 0,0.096 0.026,0.194 0.079,0.295 0.053,0.1 0.114,0.17 0.186,0.212 z" /></g><g
           transform="translate(140.8053,367.4086)"
           id="g684"><path
             id="path686"
             style="fill:#2b454e;fill-opacity:1;fill-rule:nonzero;stroke:none"
             d="m 0,0 c -0.111,-0.065 -0.196,-0.074 -0.255,-0.03 -0.058,0.045 -0.101,0.081 -0.128,0.11 l -2.745,3.853 v -5.387 c 0,-0.095 -0.026,-0.193 -0.078,-0.293 -0.052,-0.099 -0.115,-0.171 -0.187,-0.212 L -4.187,-2.418 C -4.259,-2.459 -4.32,-2.46 -4.373,-2.42 c -0.053,0.039 -0.078,0.106 -0.078,0.202 v 8.446 c 0,0.095 0.025,0.193 0.078,0.294 0.053,0.1 0.114,0.17 0.186,0.212 L -3.5,7.13 c 0.11,0.064 0.196,0.074 0.255,0.029 0.058,-0.044 0.1,-0.081 0.127,-0.109 l 2.745,-3.853 v 5.385 c 0,0.096 0.026,0.194 0.079,0.295 0.053,0.1 0.114,0.17 0.186,0.212 L 0.687,9.547 C 0.758,9.589 0.82,9.589 0.872,9.55 0.925,9.51 0.951,9.442 0.951,9.347 V 0.901 C 0.951,0.806 0.925,0.707 0.872,0.608 0.82,0.508 0.758,0.437 0.687,0.396 Z" /></g><g
           transform="translate(132.8179,363.5917)"
           id="g688"><path
             id="path690"
             style="fill:#2b454e;fill-opacity:1;fill-rule:nonzero;stroke:none"
             d="M 0,0 C 0.012,0.116 0.049,0.241 0.11,0.375 0.172,0.508 0.262,0.609 0.379,0.677 L 1.146,1.12 C 1.199,1.15 1.244,1.151 1.282,1.122 1.32,1.093 1.339,1.043 1.339,0.973 1.339,0.941 1.336,0.913 1.331,0.886 L 0.749,-1.4 C 0.725,-1.491 0.686,-1.596 0.63,-1.715 0.574,-1.833 0.488,-1.927 0.371,-1.994 l -0.397,-0.229 c -0.053,-0.031 -0.099,-0.032 -0.137,-0.002 -0.038,0.028 -0.057,0.078 -0.057,0.148 v 0.024 z" /></g><g
           transform="translate(147.4918,376.9428)"
           id="g692"><path
             id="path694"
             style="fill:#2b454e;fill-opacity:1;fill-rule:nonzero;stroke:none"
             d="M 0,0 C -0.026,0.612 -0.179,1.01 -0.456,1.194 -0.734,1.378 -1.102,1.337 -1.56,1.073 -2.017,0.809 -2.384,0.425 -2.662,-0.08 c -0.277,-0.504 -0.43,-1.078 -0.456,-1.72 -0.013,-0.339 -0.02,-0.711 -0.02,-1.116 0,-0.405 0.007,-0.77 0.02,-1.094 0.026,-0.612 0.179,-1.008 0.456,-1.187 0.278,-0.181 0.645,-0.139 1.102,0.126 0.458,0.264 0.826,0.646 1.104,1.148 0.277,0.5 0.43,1.071 0.456,1.713 0.013,0.339 0.02,0.711 0.02,1.117 C 0.02,-0.688 0.013,-0.324 0,0 m -4.441,-2.499 c 0.019,0.498 0.089,0.999 0.209,1.5 0.122,0.502 0.3,0.979 0.536,1.433 0.234,0.454 0.529,0.877 0.882,1.268 0.353,0.392 0.771,0.727 1.254,1.006 0.478,0.276 0.893,0.423 1.246,0.444 C 0.039,3.173 0.333,3.09 0.568,2.903 0.804,2.717 0.983,2.446 1.108,2.091 1.231,1.734 1.305,1.314 1.323,0.83 1.33,0.667 1.335,0.487 1.338,0.288 1.342,0.09 1.343,-0.116 1.343,-0.329 1.343,-0.543 1.342,-0.751 1.338,-0.953 1.335,-1.156 1.33,-1.342 1.323,-1.51 1.305,-2.01 1.233,-2.511 1.113,-3.012 0.991,-3.514 0.813,-3.99 0.578,-4.444 0.343,-4.899 0.048,-5.319 -0.309,-5.708 -0.665,-6.097 -1.082,-6.429 -1.56,-6.705 c -0.483,-0.279 -0.901,-0.429 -1.254,-0.45 -0.353,-0.02 -0.648,0.06 -0.882,0.242 -0.236,0.183 -0.414,0.454 -0.536,0.816 -0.12,0.362 -0.19,0.781 -0.209,1.258 -0.007,0.161 -0.012,0.341 -0.015,0.541 -0.003,0.198 -0.005,0.404 -0.005,0.618 0,0.213 0.002,0.421 0.005,0.623 0.003,0.202 0.008,0.388 0.015,0.558" /></g><g
           transform="translate(154.5416,384.4906)"
           id="g696"><path
             id="path698"
             style="fill:#2b454e;fill-opacity:1;fill-rule:nonzero;stroke:none"
             d="m 0,0 c 0.072,0.042 0.134,0.042 0.187,0.003 0.052,-0.04 0.078,-0.108 0.078,-0.204 V -1.128 C 0.265,-1.225 0.239,-1.322 0.187,-1.423 0.134,-1.522 0.072,-1.593 0,-1.635 l -1.765,-1.019 v -7.164 c 0,-0.096 -0.026,-0.194 -0.079,-0.293 -0.051,-0.1 -0.114,-0.171 -0.185,-0.212 l -0.794,-0.459 c -0.072,-0.041 -0.135,-0.042 -0.187,-0.003 -0.053,0.039 -0.078,0.107 -0.078,0.203 v 7.164 l -1.766,-1.019 c -0.071,-0.042 -0.133,-0.042 -0.185,-0.003 -0.053,0.04 -0.079,0.107 -0.079,0.204 v 0.927 c 0,0.096 0.026,0.194 0.079,0.295 0.052,0.1 0.114,0.17 0.185,0.212 z" /></g><g
           transform="translate(162.2291,388.9286)"
           id="g700"><path
             id="path702"
             style="fill:#2b454e;fill-opacity:1;fill-rule:nonzero;stroke:none"
             d="m 0,0 c 0.071,0.042 0.133,0.042 0.186,0.003 0.052,-0.04 0.079,-0.108 0.079,-0.204 V -1.128 C 0.265,-1.225 0.238,-1.322 0.186,-1.423 0.133,-1.522 0.071,-1.593 0,-1.635 l -3.129,-1.806 v -2.536 l 2.933,1.693 c 0.071,0.041 0.134,0.043 0.185,0.003 0.053,-0.039 0.079,-0.107 0.079,-0.203 v -0.929 c 0,-0.095 -0.026,-0.193 -0.079,-0.293 -0.051,-0.1 -0.114,-0.17 -0.185,-0.212 l -2.933,-1.693 v -2.994 c 0,-0.096 -0.026,-0.194 -0.077,-0.293 -0.053,-0.099 -0.115,-0.171 -0.188,-0.212 l -0.793,-0.459 c -0.073,-0.041 -0.134,-0.042 -0.187,-0.003 -0.052,0.039 -0.078,0.107 -0.078,0.203 v 8.445 c 0,0.096 0.026,0.194 0.078,0.295 0.053,0.099 0.114,0.17 0.187,0.212 z" /></g><g
           transform="translate(167.7584,388.6435)"
           id="g704"><path
             id="path706"
             style="fill:#2b454e;fill-opacity:1;fill-rule:nonzero;stroke:none"
             d="M 0,0 C -0.026,0.612 -0.179,1.01 -0.456,1.194 -0.734,1.378 -1.103,1.337 -1.56,1.073 -2.018,0.809 -2.385,0.425 -2.663,-0.08 -2.94,-0.584 -3.092,-1.158 -3.118,-1.8 c -0.013,-0.339 -0.02,-0.711 -0.02,-1.116 0,-0.405 0.007,-0.77 0.02,-1.094 0.026,-0.612 0.178,-1.008 0.455,-1.187 0.278,-0.181 0.645,-0.138 1.103,0.126 0.457,0.264 0.826,0.646 1.104,1.148 0.277,0.5 0.43,1.071 0.456,1.713 0.013,0.339 0.019,0.711 0.019,1.117 C 0.019,-0.688 0.013,-0.324 0,0 m -4.442,-2.499 c 0.019,0.499 0.089,0.999 0.21,1.5 0.122,0.502 0.3,0.979 0.535,1.433 0.235,0.454 0.529,0.877 0.882,1.268 0.354,0.392 0.771,0.727 1.255,1.006 0.478,0.276 0.892,0.423 1.245,0.444 C 0.039,3.173 0.333,3.09 0.568,2.903 0.803,2.717 0.983,2.446 1.107,2.091 1.231,1.734 1.304,1.314 1.323,0.829 1.329,0.667 1.334,0.487 1.338,0.288 1.341,0.09 1.343,-0.116 1.343,-0.329 1.343,-0.543 1.341,-0.751 1.338,-0.953 1.334,-1.156 1.329,-1.342 1.323,-1.51 1.304,-2.01 1.232,-2.511 1.112,-3.012 0.991,-3.514 0.813,-3.99 0.578,-4.444 0.342,-4.899 0.047,-5.319 -0.309,-5.708 -0.666,-6.097 -1.082,-6.429 -1.56,-6.705 c -0.484,-0.279 -0.901,-0.429 -1.255,-0.45 -0.353,-0.02 -0.647,0.06 -0.882,0.242 -0.235,0.183 -0.413,0.454 -0.535,0.816 -0.121,0.362 -0.191,0.781 -0.21,1.258 -0.007,0.161 -0.012,0.341 -0.014,0.541 -0.004,0.198 -0.006,0.404 -0.006,0.618 0,0.213 0.002,0.421 0.006,0.623 0.002,0.203 0.007,0.388 0.014,0.558" /></g><g
           transform="translate(175.6803,396.6947)"
           id="g708"><path
             id="path710"
             style="fill:#2b454e;fill-opacity:1;fill-rule:nonzero;stroke:none"
             d="m 0,0 c 0.071,0.042 0.134,0.042 0.186,0.003 0.052,-0.04 0.079,-0.108 0.079,-0.204 V -5.56 c 0,-0.541 -0.059,-1.062 -0.176,-1.566 -0.119,-0.504 -0.295,-0.981 -0.53,-1.431 -0.236,-0.449 -0.53,-0.861 -0.883,-1.235 -0.353,-0.373 -0.761,-0.694 -1.225,-0.962 -0.471,-0.272 -0.882,-0.424 -1.231,-0.455 -0.35,-0.033 -0.642,0.041 -0.877,0.218 -0.236,0.178 -0.41,0.452 -0.525,0.822 -0.114,0.37 -0.172,0.824 -0.172,1.365 v 5.36 c 0,0.095 0.027,0.194 0.079,0.294 0.052,0.1 0.114,0.171 0.186,0.212 l 0.794,0.459 c 0.072,0.041 0.135,0.042 0.187,0.003 0.051,-0.041 0.078,-0.108 0.078,-0.204 v -5.294 c 0,-0.358 0.036,-0.642 0.108,-0.853 0.072,-0.211 0.174,-0.359 0.304,-0.445 0.131,-0.087 0.287,-0.114 0.471,-0.082 0.182,0.031 0.382,0.109 0.598,0.234 0.215,0.124 0.416,0.278 0.603,0.459 0.186,0.182 0.343,0.39 0.475,0.628 0.131,0.237 0.234,0.503 0.309,0.8 0.075,0.295 0.113,0.623 0.113,0.98 v 5.294 c 0,0.096 0.026,0.193 0.078,0.294 0.052,0.1 0.115,0.171 0.187,0.212 z" /></g><g
           transform="translate(181.8765,391.121)"
           id="g712"><path
             id="path714"
             style="fill:#2b454e;fill-opacity:1;fill-rule:nonzero;stroke:none"
             d="m 0,0 c -0.111,-0.065 -0.196,-0.074 -0.255,-0.03 -0.058,0.045 -0.101,0.081 -0.128,0.11 l -2.745,3.853 v -5.387 c 0,-0.095 -0.026,-0.193 -0.078,-0.293 -0.053,-0.099 -0.115,-0.171 -0.187,-0.212 L -4.187,-2.418 C -4.259,-2.459 -4.32,-2.46 -4.373,-2.42 c -0.053,0.039 -0.079,0.106 -0.079,0.202 v 8.446 c 0,0.095 0.026,0.193 0.079,0.294 0.053,0.1 0.114,0.17 0.186,0.212 L -3.5,7.13 c 0.11,0.064 0.196,0.074 0.254,0.029 0.06,-0.044 0.101,-0.081 0.128,-0.109 l 2.745,-3.853 v 5.385 c 0,0.096 0.026,0.194 0.079,0.295 0.052,0.1 0.114,0.17 0.186,0.212 L 0.686,9.547 C 0.758,9.589 0.819,9.589 0.872,9.55 0.925,9.51 0.951,9.442 0.951,9.347 V 0.901 C 0.951,0.806 0.925,0.707 0.872,0.608 0.819,0.508 0.758,0.437 0.686,0.396 Z" /></g><g
           transform="translate(188.651,400.5751)"
           id="g716"><path
             id="path718"
             style="fill:#2b454e;fill-opacity:1;fill-rule:nonzero;stroke:none"
             d="M 0,0 C -0.014,0.271 -0.054,0.507 -0.123,0.706 -0.191,0.907 -0.293,1.058 -0.426,1.159 -0.561,1.26 -0.73,1.303 -0.932,1.286 -1.134,1.269 -1.376,1.179 -1.657,1.017 L -2.971,0.258 v -5.883 l 1.364,0.788 c 0.267,0.154 0.499,0.339 0.695,0.552 0.196,0.214 0.359,0.445 0.491,0.695 0.13,0.249 0.23,0.517 0.298,0.8 0.069,0.283 0.109,0.568 0.123,0.855 0.026,0.66 0.026,1.305 0,1.935 m -1.607,2.68 c 0.483,0.28 0.903,0.437 1.259,0.473 C 0.009,3.189 0.306,3.118 0.544,2.942 0.783,2.766 0.966,2.492 1.094,2.122 1.221,1.75 1.297,1.298 1.323,0.764 1.35,0.134 1.35,-0.511 1.323,-1.17 1.297,-1.735 1.221,-2.276 1.094,-2.794 0.966,-3.313 0.785,-3.796 0.549,-4.246 0.313,-4.695 0.021,-5.106 -0.328,-5.478 -0.679,-5.85 -1.089,-6.171 -1.559,-6.443 L -4.03,-7.87 c -0.072,-0.041 -0.133,-0.042 -0.186,-0.003 -0.053,0.04 -0.079,0.107 -0.079,0.203 v 8.445 c 0,0.096 0.026,0.194 0.079,0.295 0.053,0.099 0.114,0.17 0.186,0.212 z" /></g></g></g></g></svg>